<?xml version="1.0" encoding="UTF-8"?>
<svg width="115px" height="37px" viewBox="0 0 115 37" version="1.1" xmlns="http://www.w3.org/2000/svg" xmlns:xlink="http://www.w3.org/1999/xlink">
    <title>Photos</title>
    <defs>
        <path d="M0.949605585,36.0174808 C0.689606502,36.0288898 0.432938457,35.9554106 0.218199947,35.8080935 C0.0480530099,35.6045125 -0.0278980776,35.3381566 0.00922690718,35.0752377 L0.00922690718,10.1581408 C-0.0278980776,9.89522187 0.0480530099,9.62886601 0.218199947,9.42528503 C0.432938457,9.27796786 0.689606502,9.20448874 0.949605585,9.21589766 L3.61401184,9.21589766 C3.86344476,9.18797733 4.11372311,9.26056246 4.30970912,9.41766214 C4.50569512,9.57476181 4.63130891,9.8034866 4.65887704,10.0534471 L4.92009334,11.0480371 C5.70918599,10.3061902 6.63084637,9.72013066 7.63674285,9.32059134 C8.66666742,8.90645415 9.76606126,8.69324636 10.875825,8.69242924 C13.0978992,8.58355952 15.2298603,9.58306039 16.5703403,11.3621182 C17.9809083,13.1419108 18.6600707,15.4975187 18.6600707,18.5336356 C18.7081396,20.3857013 18.3515256,22.2259051 17.6152055,23.9253603 C17.0113194,25.3444465 16.0367365,26.5741324 14.7940695,27.4849456 C13.580899,28.3208867 12.1390871,28.759774 10.6668519,28.7412698 C9.67273869,28.7424631 8.68490841,28.5833899 7.74122937,28.2701482 C6.8773864,27.9724775 6.07909986,27.5103308 5.39028267,26.9091303 L5.39028267,35.0752377 C5.4454151,35.3307399 5.38833085,35.5976612 5.23355289,35.8080935 C5.01881438,35.9554106 4.76214634,36.0288898 4.50214726,36.0174808 L0.949605585,36.0174808 Z M9.09955413,24.6058692 C10.2993659,24.6869804 11.4588725,24.1553067 12.1819065,23.1925045 C12.8610688,22.2502614 13.1745284,20.7322029 13.1745284,18.6906761 C13.1745284,16.6491492 12.8610688,15.1310908 12.1819065,14.1888477 C11.5027441,13.2466045 10.5101221,12.7754829 9.09955413,12.7754829 C7.8149079,12.7822892 6.55430659,13.1251308 5.44252593,13.7700729 L5.44252593,23.6112792 C6.537015,24.2968155 7.80934241,24.6428462 9.09955413,24.6058692 L9.09955413,24.6058692 Z M23.2574776,28.2178014 C23.0565545,28.2666314 22.8444981,28.2333662 22.6680832,28.1253433 C22.4916682,28.0173204 22.3653887,27.8434148 22.3170989,27.6419861 L22.3170989,1.62560555 C22.2799739,1.3626866 22.355925,1.09633074 22.5260719,0.89274976 C22.7408104,0.745432596 22.9974785,0.671953471 23.2574776,0.683362391 L26.8100192,0.683362391 C27.0700183,0.671953471 27.3266864,0.745432596 27.5414249,0.89274976 C27.6884505,1.10791403 27.7617842,1.36509097 27.7503979,1.62560555 L27.7503979,10.9433434 C29.6753781,9.48348494 32.023346,8.69315058 34.4375352,8.69242924 C36.213806,8.69242924 37.5721308,9.16355082 38.5125094,10.1581408 C39.4528881,11.1527308 39.9753207,12.4614019 39.9753207,14.2411945 L39.9753207,27.4325987 C40.0211757,27.6897508 39.9346096,27.9527423 39.7450718,28.1321052 C39.555534,28.311468 39.2885485,28.3830484 39.034942,28.322495 L35.4824004,28.322495 C35.2742837,28.3670576 35.0570264,28.3254773 34.879953,28.2071944 C34.7028797,28.0889114 34.5810133,27.9039609 34.5420217,27.6943329 L34.5420217,15.8115998 C34.6085799,15.0021597 34.3658232,14.1976032 33.8628593,13.5606856 C33.3127062,13.046821 32.57609,12.7818704 31.8253722,12.8278298 C30.3742792,12.8423152 28.958618,13.2787669 27.7503979,14.084154 L27.7503979,27.327905 C27.7700423,27.5731591 27.695271,27.8166475 27.5414249,28.008414 C27.3385649,28.1794984 27.0724642,28.255678 26.8100192,28.2178014 L23.2574776,28.2178014 Z M53.0361357,28.8983103 C50.0582699,28.8983103 47.7595664,28.008414 46.0877821,26.2286214 C44.4159978,24.4488287 43.5801056,21.9361803 43.5801056,18.7430229 C43.5801056,15.5498656 44.4159978,13.089564 46.0877821,11.3097713 C47.7595664,9.52997871 50.0582699,8.6400824 53.0361357,8.6400824 C56.0140015,8.6400824 58.3127049,9.52997871 59.9844892,11.3097713 C61.6562736,13.089564 62.4921657,15.5498656 62.4921657,18.7430229 C62.4921657,21.9361803 61.6562736,24.3964819 59.9844892,26.1762745 C58.3127049,27.9560671 55.9617582,28.8459635 53.0361357,28.8983103 Z M53.0361357,24.7105629 C55.6482987,24.7105629 56.9543802,22.7213829 56.9543802,18.7953698 C56.9543802,14.8693566 55.6482987,12.8801766 53.0361357,12.8801766 C50.4239727,12.8801766 49.1178912,14.8693566 49.1178912,18.7953698 C49.1178912,22.7213829 50.4239727,24.6582161 53.0361357,24.7105629 L53.0361357,24.7105629 Z M73.0975475,28.6365944 C71.0078171,28.6365944 69.4405193,28.1654545 68.3956541,27.1708645 C67.3507889,26.1762745 66.8805996,24.6582161 66.8805996,22.5643424 L66.8805996,13.2989513 L64.9475989,13.2989513 C64.504572,13.3541749 64.0941892,13.0571997 64.0072203,12.6184424 L64.0072203,10.8386498 C63.9958339,10.5781352 64.0691676,10.3209582 64.2161933,10.105794 C64.4019716,9.92914607 64.6406676,9.8187603 64.8953557,9.79171292 L67.0373293,9.32059134 L67.7164917,5.08049713 C67.7204173,4.80434737 67.8330838,4.54093777 68.0299513,4.34764134 C68.2331294,4.17715706 68.4989582,4.10105538 68.7613569,4.13825397 L71.4257632,4.13825397 C71.6857622,4.12684505 71.9424303,4.20032418 72.1571688,4.34764134 C72.3041945,4.56280561 72.3775282,4.81998255 72.3661418,5.08049713 L72.3661418,9.32059134 L76.5978459,9.32059134 C76.857845,9.30918242 77.114513,9.38266155 77.3292515,9.52997871 C77.4762772,9.74514298 77.5496109,10.0023199 77.5382246,10.2628345 L77.5382246,12.409055 C77.5496109,12.6695696 77.4762772,12.9267465 77.3292515,13.1419108 C77.1260734,13.3123951 76.8602446,13.3884968 76.5978459,13.3512982 L72.3661418,13.3512982 L72.3661418,22.3026082 C72.3059904,22.9180817 72.5157062,23.5293735 72.9408177,23.9777071 C73.5432138,24.370743 74.2649367,24.5376247 74.9783048,24.4488287 C75.3633395,24.4399335 75.747333,24.4049558 76.1276565,24.344135 C76.4024774,24.2835327 76.6822959,24.2484861 76.9635487,24.2394414 C77.3814948,24.2394414 77.5904678,24.5011756 77.5904678,25.0769908 L77.5904678,26.9091303 C77.6020915,27.2192089 77.5298898,27.5266741 77.3814948,27.7990266 C77.2279652,27.9981355 77.0031219,28.1295542 76.7545757,28.1654545 C75.5608992,28.4796293 74.331718,28.6379802 73.0975475,28.6365944 Z M88.8227687,28.8983103 C85.8449029,28.8983103 83.5461995,28.008414 81.8744151,26.2286214 C80.2026308,24.4488287 79.3667387,21.9361803 79.3667387,18.7430229 C79.3667387,15.5498656 80.2026308,13.089564 81.8744151,11.3097713 C83.5461995,9.52997871 85.8449029,8.6400824 88.8227687,8.6400824 C91.8006345,8.6400824 94.0993379,9.52997871 95.7711223,11.3097713 C97.4429066,13.089564 98.2787987,15.6022124 98.2787987,18.7430229 C98.2787987,21.8838335 97.4429066,24.3964819 95.7711223,26.1762745 C94.0993379,27.9560671 91.8006345,28.8459635 88.8227687,28.8983103 Z M88.8227687,24.7105629 C91.4349317,24.7105629 92.7410132,22.7213829 92.7410132,18.7953698 C92.7410132,14.8693566 91.4349317,12.8801766 88.8227687,12.8801766 C86.2106057,12.8801766 84.9045242,14.8693566 84.9045242,18.7953698 C84.9045242,22.7213829 86.2106057,24.6582161 88.8227687,24.7105629 L88.8227687,24.7105629 Z M107.421369,28.9506571 C105.377506,28.9893404 103.348365,28.5969753 101.465638,27.7990266 C101.208862,27.6912999 100.977493,27.5308038 100.786475,27.327905 C100.684305,27.0787106 100.631089,26.8121021 100.629745,26.5427024 L100.629745,24.8676035 C100.629745,24.2917882 100.838718,24.030054 101.256665,24.030054 C101.43493,24.0395767 101.610889,24.0748383 101.779097,24.1347477 C102.659037,24.4429077 103.570021,24.6535515 104.495747,24.7629098 C105.446068,24.912594 106.40719,24.9826323 107.369126,24.9722971 C109.145397,24.9722971 110.033532,24.344135 110.033532,23.0878108 C110.055608,22.6630633 109.904796,22.2475083 109.615586,21.9361803 C109.099068,21.5379645 108.515019,21.2364939 107.891559,21.046284 L104.965936,19.8946535 C103.698192,19.4579918 102.564479,18.7006843 101.674611,17.6960861 C100.981337,16.7209243 100.632073,15.5421218 100.681989,14.3458882 C100.639942,12.7297688 101.403911,11.1988022 102.719476,10.2628345 C104.077801,9.21589766 105.854071,8.69242924 108.152775,8.69242924 C109.846079,8.69899679 111.525389,9.00010058 113.115885,9.58232555 C113.369564,9.63893609 113.593082,9.78824365 113.742804,10.0011003 C113.899005,10.2503272 113.955017,10.5496532 113.899533,10.8386498 L113.899533,12.4614019 C113.899533,13.0372171 113.69056,13.2989513 113.272614,13.2989513 C112.919755,13.2544125 112.570561,13.1844352 112.227749,13.089564 C111.051196,12.7787591 109.839719,12.620427 108.622964,12.6184424 C107.85683,12.5821847 107.091603,12.7070035 106.376504,12.9848703 C105.913769,13.2028859 105.625834,13.6768599 105.645098,14.1888477 C105.638924,14.5798154 105.789474,14.9569362 106.063044,15.2357845 C106.614698,15.6516715 107.233056,15.9703143 107.891559,16.1780277 L110.712695,17.3296582 C111.967336,17.7669106 113.096941,18.503508 114.00402,19.4758787 C114.688285,20.3958765 115.038483,21.5224254 114.996642,22.6690361 C115.048067,24.4012394 114.271777,26.0541253 112.906912,27.1185177 C111.548587,28.3748419 109.720073,28.9506571 107.421369,28.9506571 Z" id="path-1"></path>
    </defs>
    <g id="Web_Desktop" stroke="none" stroke-width="1" fill="none" fill-rule="evenodd">
        <g id="Photos">
            <mask id="mask-2" fill="white">
                <use xlink:href="#path-1"></use>
            </mask>
            <g id="path-1"></g>
            <rect id="↳-icon-tint" fill="#111111" fill-rule="nonzero" mask="url(#mask-2)" x="0" y="0.682209" width="115" height="61.7717791"></rect>
        </g>
    </g>
</svg>