<svg version="1.1" id="Layer_1" xmlns="http://www.w3.org/2000/svg" xmlns:xlink="http://www.w3.org/1999/xlink" x="0px" y="0px"
	 width="100%" viewBox="0 0 1105 222" enable-background="new 0 0 1105 222" xml:space="preserve">
<path fill="#FFFFFF" opacity="1.000000" stroke="none" 
	d="
M368.000000,1.000002 
	C613.895142,1.000000 859.790283,1.000000 1105.842773,1.000000 
	C1105.842773,74.999756 1105.842773,148.999832 1105.842773,223.000000 
	C1088.250244,223.000000 1070.591064,223.000000 1052.619141,222.615479 
	C1074.439087,220.876862 1095.057251,202.537201 1094.313721,176.809021 
	C1093.831543,160.121124 1084.287231,142.171646 1066.112671,135.096237 
	C1046.576782,127.490860 1022.979675,133.569763 1010.689636,150.133057 
	C1007.765442,154.073929 1006.179077,159.055649 1003.047668,162.776138 
	C1001.212219,164.956818 997.533630,166.518768 994.698547,166.496948 
	C993.448547,166.487320 991.525818,161.942612 991.174500,159.289215 
	C990.682678,155.575272 991.584351,151.701218 991.521667,147.901733 
	C991.273804,132.878326 991.808533,132.639282 978.404236,132.994919 
	C977.904846,133.008163 977.400208,133.041443 976.905823,132.990051 
	C972.520874,132.534210 970.830872,134.076599 970.882263,138.875519 
	C971.135559,162.526779 970.997620,186.182251 970.997253,209.836227 
	C970.997070,221.319992 970.996704,221.320831 982.362488,221.592316 
	C982.861450,221.604248 983.365234,221.611450 983.860291,221.559311 
	C990.122131,220.899796 990.999084,219.901245 991.002747,213.451889 
	C991.006287,207.121964 990.654358,200.762619 991.177063,194.475952 
	C991.399597,191.800064 990.296753,187.615097 994.900574,186.818710 
	C998.903442,186.126282 1001.560181,188.191849 1003.461609,191.452301 
	C1004.370117,193.010284 1005.183411,194.629364 1005.953613,196.261490 
	C1010.090332,205.028030 1015.880066,212.488419 1024.643799,216.819534 
	C1030.111938,219.521912 1036.193604,220.982285 1042.000000,223.000000 
	C695.000000,223.000000 348.000000,223.000000 1.000000,223.000000 
	C1.000000,218.939346 1.000000,214.941101 1.226112,210.487640 
	C1.452223,210.032410 1.900810,210.098175 1.961499,210.449936 
	C3.827664,215.748383 7.297029,218.040146 12.626188,218.033920 
	C59.778355,217.978836 106.930611,218.007828 154.082840,217.995026 
	C160.883636,217.993179 164.896820,214.387360 165.563141,207.603699 
	C165.790222,205.291779 165.655396,202.942474 165.654572,200.610260 
	C165.642120,165.963577 165.620422,131.316895 165.609192,96.670219 
	C165.600342,69.350044 165.625305,42.029842 165.585663,14.709724 
	C165.574783,7.212387 163.311371,3.934454 157.014816,1.691109 
	C156.944199,1.466869 157.000000,1.000000 157.000000,1.000000 
	C224.022644,1.000000 291.045288,1.000000 358.368896,1.391309 
	C352.679626,2.903786 346.596191,3.676532 340.725677,5.245660 
	C335.034760,6.766785 333.445312,9.852508 334.753204,14.763506 
	C336.409058,20.981018 339.655334,23.064606 345.669495,21.685038 
	C347.108765,21.354881 348.471558,20.683632 349.913513,20.374126 
	C357.559418,18.732973 365.250671,17.345531 372.755646,20.837292 
	C376.467987,22.564495 379.919128,24.801363 379.088196,29.760302 
	C378.314392,34.378193 374.816559,36.435116 370.721130,36.947758 
	C365.143707,37.645908 359.482971,37.910305 353.857452,37.917019 
	C349.637543,37.922058 347.796722,40.199181 347.096252,43.765614 
	C345.741455,50.663589 347.815399,53.387436 354.871307,53.824425 
	C359.016846,54.081165 363.195099,53.763298 367.351532,53.907665 
	C370.151520,54.004925 373.386322,53.674019 375.620605,54.948071 
	C378.496399,56.587921 382.183044,59.435223 382.529724,62.145058 
	C382.880035,64.883026 380.283997,69.265030 377.708008,70.814713 
	C373.799316,73.166153 368.729279,74.940186 364.266541,74.713753 
	C356.789886,74.334396 349.341034,72.442749 342.003479,70.676498 
	C338.105591,69.738228 335.604736,70.649696 333.636627,73.935089 
	C330.213562,79.649353 331.437927,84.590179 337.788300,86.621727 
	C344.830566,88.874626 352.149963,90.583092 359.477844,91.544388 
	C369.957336,92.919144 380.294220,91.618233 390.068420,87.200882 
	C405.707520,80.132942 410.914307,63.234901 400.223907,52.113071 
	C393.684662,45.309944 394.088928,43.526207 398.979126,36.067719 
	C403.906738,28.552042 403.086456,20.402868 397.011566,13.688109 
	C392.080566,8.237680 385.831085,4.890448 378.785156,3.083185 
	C375.244904,2.175111 371.598450,1.681204 368.000000,1.000002 
M420.133972,32.499989 
	C420.133575,48.159630 420.136658,63.819271 420.131653,79.478912 
	C420.128143,90.371681 421.884674,91.914642 432.830780,90.557465 
	C433.481323,90.476799 434.113708,90.042549 434.746613,90.060028 
	C438.959930,90.176369 440.084625,87.863655 440.048370,84.052528 
	C439.932800,71.892342 439.996277,59.730339 440.020935,47.569103 
	C440.023407,46.347462 440.231995,45.126240 440.461548,42.643162 
	C441.908447,44.603352 442.680054,45.537914 443.332245,46.549488 
	C449.425232,55.999817 455.449188,65.495018 461.591125,74.913315 
	C466.758698,82.837479 472.547577,82.945900 477.753204,75.041801 
	C481.379150,69.536247 484.501129,63.701057 487.931305,58.063663 
	C491.119141,52.824627 494.416962,47.652485 497.666321,42.450882 
	C498.179657,42.588642 498.692993,42.726402 499.206329,42.864159 
	C499.469055,44.870193 499.943939,46.874645 499.958862,48.882526 
	C500.035736,59.210716 499.994568,69.539787 499.994507,79.868546 
	C499.994446,89.981560 501.803528,91.602165 512.015320,90.579071 
	C513.001404,90.480270 513.980713,90.007507 514.945374,90.056999 
	C518.076111,90.217628 519.001343,88.544891 518.994629,85.751320 
	C518.932495,59.764385 518.919189,33.777302 518.806885,7.790622 
	C518.801758,6.606288 518.337646,4.973135 517.491882,4.319441 
	C513.294739,1.075398 501.955597,3.334272 499.129059,7.980036 
	C492.782013,18.412260 486.590698,28.939125 480.308380,39.410885 
	C477.074036,44.802097 473.780518,50.157810 470.110748,56.192207 
	C468.214355,53.500652 466.981567,51.948582 465.959167,50.268463 
	C458.067017,37.298889 449.821259,24.521349 442.511993,11.229589 
	C438.654083,4.214090 433.417023,2.465544 426.223633,3.123801 
	C422.105011,3.500688 419.901276,4.921896 420.062469,9.512170 
	C420.319550,16.833250 420.132996,24.169910 420.133972,32.499989 
M265.006409,47.466328 
	C262.608032,50.632706 260.209686,53.799080 257.010010,58.023365 
	C257.010010,43.016926 257.010132,29.552473 257.009949,16.088020 
	C257.009735,2.699945 256.583069,2.307039 243.010300,3.192377 
	C236.898590,3.591038 236.407181,4.061595 236.396103,10.364209 
	C236.353699,34.517109 236.476257,58.671345 236.231964,82.821999 
	C236.180557,87.904373 237.362808,90.795761 242.905975,90.511147 
	C248.872971,90.204765 255.247375,91.729919 259.652618,85.616692 
	C266.613861,75.956429 273.770447,66.435806 280.917114,56.910667 
	C285.928131,50.231956 291.060272,43.644161 296.138336,37.015762 
	C296.468353,37.132824 296.798340,37.249882 297.128357,37.366943 
	C297.128357,38.954979 297.128235,40.543015 297.128387,42.131050 
	C297.129913,55.959702 296.987915,69.791420 297.283417,83.613777 
	C297.329254,85.756111 298.982208,89.234581 300.580963,89.693184 
	C304.110291,90.705597 308.080475,90.147301 311.867798,90.302597 
	C317.061340,90.515533 317.986847,87.637650 317.951904,83.079163 
	C317.779541,60.588055 317.929443,38.094719 317.856384,15.602526 
	C317.813080,2.277538 319.957611,3.587513 305.058167,3.086800 
	C299.759430,2.908729 296.088196,4.735597 292.932495,9.214420 
	C283.977295,21.924236 274.565125,34.312054 265.006409,47.466328 
M321.016693,134.589325 
	C320.723724,135.514313 320.176544,136.438812 320.174805,137.364349 
	C320.124573,163.989944 320.155670,190.615723 320.090057,217.241257 
	C320.082123,220.463043 321.662323,221.061630 324.459839,221.045563 
	C339.602844,220.958603 354.753601,221.281647 369.887634,220.901688 
	C379.622314,220.657288 387.765717,216.347748 393.725616,208.506378 
	C399.589111,200.791870 397.994690,187.501984 390.620392,181.027328 
	C385.170074,176.241928 384.414856,174.255585 387.998657,170.459229 
	C398.516083,159.318130 392.191681,139.886292 376.640717,135.904968 
	C358.409851,131.237549 340.078491,133.077606 321.016693,134.589325 
M868.992493,211.416840 
	C868.993591,213.414993 868.660950,215.492615 869.111206,217.383850 
	C869.420288,218.681931 870.727905,220.632965 871.742126,220.732483 
	C880.336609,221.575714 888.434387,221.485626 894.244812,213.005463 
	C903.038208,200.171677 912.468689,187.772430 921.716187,175.253357 
	C923.679749,172.595108 926.020935,170.215714 928.188171,167.707840 
	C928.605774,167.937286 929.023438,168.166733 929.441040,168.396179 
	C929.441040,182.929932 929.556641,197.464935 929.396912,211.996933 
	C929.303711,220.478836 931.164246,221.241257 937.484619,221.027267 
	C950.546265,220.585037 948.832581,223.684601 949.503357,208.897171 
	C950.066223,196.488129 949.719543,184.033401 949.621216,171.600113 
	C949.530518,160.133743 949.258545,148.668457 948.987732,137.204544 
	C948.963318,136.170990 948.679382,134.757111 947.975891,134.190811 
	C944.292236,131.225327 930.584900,133.388336 927.653625,137.356049 
	C920.088501,147.596268 912.643127,157.925217 905.058105,168.150589 
	C900.318970,174.539398 895.413269,180.804672 889.739075,188.228714 
	C889.427795,183.362183 889.013855,180.074280 889.045715,176.790695 
	C889.140747,166.992447 889.938477,157.171448 889.486084,147.404510 
	C888.837524,133.401688 891.364868,133.154633 874.698853,133.114716 
	C870.676453,133.105087 868.849121,134.457443 868.890869,139.002777 
	C869.109558,162.812256 868.992676,186.624817 868.992493,211.416840 
M683.996033,21.468552 
	C683.944763,24.962574 684.058044,28.469021 683.795532,31.947096 
	C683.538452,35.352711 681.883118,37.172192 677.999512,37.070728 
	C669.010681,36.835884 660.009766,36.894257 651.017151,37.040436 
	C646.805420,37.108902 644.846680,35.448784 644.975464,31.166424 
	C645.105591,26.839403 645.003906,22.505411 645.003906,18.174473 
	C645.003784,2.942981 643.354065,1.540559 628.186523,3.352600 
	C625.235413,3.705170 623.731384,4.572031 623.923035,7.928125 
	C624.204224,12.852320 623.995911,17.804483 623.995911,22.744730 
	C623.995911,43.566544 624.034912,64.388512 623.952698,85.210007 
	C623.940613,88.270561 624.149475,90.411964 628.127014,90.090950 
	C631.872864,89.788605 635.666138,89.893539 639.429871,90.040779 
	C643.695557,90.207649 644.937988,87.847229 644.935791,84.123772 
	C644.931274,76.462265 645.193604,68.793137 644.924316,61.141991 
	C644.757874,56.411385 646.457397,54.461075 651.221802,54.556572 
	C660.046387,54.733456 668.882446,54.789967 677.702942,54.531200 
	C682.096741,54.402298 683.872681,56.546318 683.928406,60.372314 
	C684.000732,65.345352 683.332703,70.338249 683.546082,75.298378 
	C684.086731,87.864868 682.003784,92.026520 697.406738,90.018150 
	C697.734619,89.975395 698.080627,89.958221 698.404175,90.012657 
	C703.325012,90.840691 704.126282,88.338913 704.091187,83.992294 
	C703.905396,61.006508 704.004639,38.018429 704.004028,15.031144 
	C704.003723,2.579751 703.482178,2.103814 690.905334,3.157932 
	C690.080933,3.227031 689.266846,3.423226 688.448914,3.565521 
	C685.408081,4.094523 683.866333,5.763097 683.967651,8.989847 
	C684.087891,12.817288 683.996033,16.651390 683.996033,21.468552 
M512.997070,177.499939 
	C512.997009,187.941284 512.885010,198.384155 513.025940,208.823593 
	C513.191956,221.126587 513.286926,221.125122 525.515930,221.003448 
	C526.015747,220.998489 526.517395,221.028854 527.015320,220.997253 
	C530.829712,220.755066 533.178162,219.322220 533.059814,214.898148 
	C532.854858,207.238800 532.955566,199.569580 533.018677,191.905273 
	C533.064331,186.366959 534.293884,185.069443 539.661743,185.023590 
	C548.492310,184.948151 557.324646,185.064102 566.155029,184.976959 
	C570.398071,184.935104 572.114136,186.948288 572.023499,191.059387 
	C571.913452,196.055771 572.047180,201.057007 571.988220,206.055130 
	C571.793884,222.527771 571.735352,220.903656 587.304443,221.062943 
	C591.494690,221.105804 593.141296,219.915176 593.100830,215.376480 
	C592.890198,191.717316 593.002563,168.055283 593.002563,144.394241 
	C593.002563,133.168564 592.736267,132.913742 581.234253,133.139511 
	C580.568115,133.152588 579.895752,133.115616 579.236816,133.192200 
	C573.634033,133.843323 572.108887,135.439392 572.022888,141.211670 
	C571.921204,148.041885 571.902222,154.876602 572.035828,161.705688 
	C572.107361,165.359055 570.855225,167.415833 566.943787,167.401840 
	C557.496765,167.368042 548.047546,167.281219 538.603271,167.446854 
	C533.981384,167.527893 532.961487,164.952072 532.993103,161.123459 
	C533.033081,156.291595 533.002747,151.459152 533.002686,146.626968 
	C533.002625,132.890991 531.814331,131.835999 517.888245,133.210312 
	C517.556702,133.243042 517.226990,133.294586 516.895508,133.327576 
	C514.269470,133.589066 512.870972,134.534943 512.917114,137.677673 
	C513.107056,150.616043 512.996826,163.558823 512.997070,177.499939 
M796.599609,175.125290 
	C796.734619,169.803146 796.876953,164.481155 797.002930,159.158798 
	C797.160706,152.495834 799.339111,150.162262 805.883972,149.977463 
	C810.874390,149.836563 815.881714,150.092392 820.860657,149.807251 
	C825.692261,149.530548 827.148865,151.464401 827.092896,156.246170 
	C826.860962,176.056198 827.052124,195.870804 826.945129,215.682968 
	C826.925049,219.393417 827.918884,221.341034 832.025635,221.057724 
	C835.622009,220.809616 839.264771,220.795151 842.858582,221.061752 
	C846.987183,221.368011 847.937317,219.422363 847.922180,215.712601 
	C847.820862,190.908936 847.895325,166.104553 847.822693,141.300690 
	C847.814819,138.602448 847.233276,135.905884 846.892822,132.994949 
	C826.913513,132.994949 807.609619,132.992920 788.305725,132.995972 
	C780.685730,132.997177 779.169189,134.574432 778.988525,142.446152 
	C778.729370,153.739975 778.743042,165.052902 778.038696,176.320053 
	C777.342957,187.449280 776.001099,198.324295 764.577087,204.857712 
	C760.929688,206.943665 759.247681,211.904404 761.096252,216.337753 
	C762.027039,218.569824 764.413269,221.319641 766.542236,221.723862 
	C773.957825,223.131821 781.056030,221.495743 785.601868,214.993454 
	C788.670532,210.604111 791.492798,205.628159 792.777588,200.501678 
	C794.772949,192.539276 795.365295,184.225296 796.599609,175.125290 
M302.874969,139.709167 
	C302.544647,136.329422 302.435913,133.008942 297.526489,133.048767 
	C278.885834,133.199936 260.243591,133.249817 241.602539,133.179016 
	C237.585022,133.163757 236.251602,134.496552 236.280762,138.671616 
	C236.460999,164.471756 236.436386,190.274429 236.261276,216.074783 
	C236.233704,220.135864 237.591522,221.131195 241.456985,221.091187 
	C259.103699,220.908554 276.753387,221.010757 294.402008,221.010712 
	C304.099182,221.010696 304.099152,221.010803 304.011078,211.099960 
	C304.009583,210.933487 303.996338,210.765503 304.013000,210.600693 
	C304.472351,206.056671 302.248688,204.284302 297.876465,204.325241 
	C288.564026,204.412430 279.244568,204.551590 269.938202,204.297028 
	C256.092773,203.918381 256.971710,206.230682 257.022095,190.287582 
	C257.033112,186.799545 258.441498,184.680527 262.351227,184.633087 
	C272.253937,184.512955 282.155304,184.047745 292.055908,184.083511 
	C297.399597,184.102829 297.401947,180.153564 297.495087,176.977402 
	C297.586029,173.876480 298.414459,169.311966 293.174896,169.033997 
	C285.074280,168.604279 276.954742,168.416580 268.841675,168.363861 
	C257.144348,168.287842 256.806549,169.301163 257.044464,155.576981 
	C257.108124,151.904404 258.733276,149.863785 262.906830,149.946060 
	C273.059174,150.146133 283.218109,150.020248 293.374390,150.008026 
	C301.658325,149.998062 302.800507,148.853027 302.874969,139.709167 
M734.335083,168.132858 
	C727.508911,168.216736 720.681519,168.419525 713.856934,168.349808 
	C707.512024,168.284988 706.211243,166.853531 706.020386,160.402893 
	C705.971191,158.742584 705.908264,157.049881 706.161011,155.420044 
	C706.740967,151.681381 708.506226,149.767914 712.843201,149.900452 
	C723.495911,150.225983 734.165771,150.062485 744.827820,149.982132 
	C751.180725,149.934265 752.133728,148.570221 752.006470,140.463531 
	C751.901611,133.784225 751.081421,133.034943 744.472473,133.048447 
	C733.145447,133.071594 721.818237,133.009918 710.491150,132.995331 
	C702.416870,132.984924 694.342651,132.993317 686.318542,132.993317 
	C686.318542,163.076019 686.318542,191.815414 686.318542,220.990143 
	C707.595520,220.990143 728.549438,221.002502 749.503174,220.947662 
	C750.397339,220.945328 752.030579,220.389999 752.069153,219.975693 
	C752.473694,215.636948 753.084717,211.214813 752.536072,206.957855 
	C752.388245,205.811066 748.521484,204.436920 746.331421,204.381943 
	C736.681213,204.139801 727.018799,204.453613 717.362976,204.353058 
	C706.574463,204.240738 705.126038,202.506744 706.023987,191.540405 
	C706.090942,190.722366 706.393005,189.924759 706.475098,189.106552 
	C706.799561,185.873688 708.551147,184.600174 711.791565,184.572403 
	C721.547302,184.488739 731.303284,184.008469 741.054993,184.104370 
	C745.139404,184.144531 746.292053,181.955582 746.797607,178.755646 
	C747.881775,171.894226 745.643982,169.051315 738.771545,168.389999 
	C737.611816,168.278397 736.446716,168.222122 734.335083,168.132858 
M541.720825,89.955536 
	C544.195374,90.191452 546.669312,90.623764 549.144592,90.631371 
	C565.137207,90.680489 581.130310,90.652489 597.123108,90.618454 
	C608.364319,90.594528 608.618652,90.250038 608.040527,79.203789 
	C607.846436,75.495667 606.260376,73.882019 602.446960,73.941269 
	C593.118713,74.086182 583.786621,73.988655 574.456116,73.988495 
	C560.693787,73.988243 560.781311,73.989311 560.962952,60.196793 
	C561.023682,55.578651 562.817444,53.693390 567.555542,53.799797 
	C576.711548,54.005413 585.882568,53.946461 595.036987,53.662979 
	C600.251709,53.501495 601.848022,51.152054 601.617126,45.321091 
	C601.396057,39.737000 599.780029,38.010418 594.627075,37.995167 
	C585.963074,37.969528 577.298157,38.060642 568.635193,37.962986 
	C562.609253,37.895054 561.049866,36.188248 561.012939,30.154810 
	C561.005798,28.988539 561.003113,27.822109 561.013184,26.655880 
	C561.066406,20.486139 562.486877,19.035141 568.665649,19.019367 
	C579.329041,18.992146 589.997437,18.820347 600.653931,19.093180 
	C605.946106,19.228674 606.706238,16.086924 606.862305,12.126712 
	C607.120972,5.565104 605.780701,3.188338 601.302795,3.180549 
	C582.646729,3.148097 563.990295,3.343557 545.334045,3.334603 
	C541.540833,3.332783 540.244934,4.629017 540.281006,8.609171 
	C540.469482,29.430586 540.292664,50.255009 540.360901,71.077995 
	C540.381042,77.201477 540.786804,83.323692 541.720825,89.955536 
M410.055176,203.504318 
	C407.645996,209.030518 405.236847,214.556702 402.424713,221.007141 
	C407.799866,221.007141 412.241150,220.786392 416.650574,221.066696 
	C421.449738,221.371750 424.609619,219.557663 426.355713,215.091232 
	C427.074158,213.253418 428.228851,211.563446 428.779877,209.687210 
	C430.341400,204.370316 433.906677,202.423523 439.237732,202.577835 
	C447.389465,202.813797 455.548676,202.814529 463.705017,202.863235 
	C472.197174,202.913956 472.919037,203.384750 476.089661,211.411713 
	C479.394623,219.778763 481.185638,221.006409 490.088318,221.006927 
	C492.253235,221.007050 494.427368,220.879761 496.581055,221.035080 
	C500.327820,221.305283 501.360413,220.104324 499.715118,216.501953 
	C488.759979,192.515686 477.350159,168.713821 467.271484,144.362244 
	C463.364258,134.921814 458.061279,131.950211 448.549622,132.949799 
	C443.849335,133.443771 440.977966,134.773178 439.014130,139.208405 
	C429.600220,160.469360 419.941498,181.621933 410.055176,203.504318 
M772.342285,3.922854 
	C767.547119,3.722748 762.687561,2.989052 757.984863,3.555877 
	C755.755493,3.824578 752.883667,6.144998 751.906128,8.272525 
	C742.405945,28.948532 733.235718,49.776291 723.994690,70.571144 
	C721.223206,76.807724 718.524292,83.076591 715.672302,89.605026 
	C717.597534,90.053604 718.873108,90.604431 720.151184,90.610313 
	C737.586121,90.690651 736.878601,91.131645 742.122803,77.488243 
	C743.562256,73.743286 746.273193,71.831657 750.568237,71.948006 
	C758.226013,72.155449 765.967224,72.669876 773.537048,71.828186 
	C781.896057,70.898743 786.245972,74.413483 788.630676,81.826057 
	C789.228149,83.683136 790.181824,85.476463 791.258179,87.110428 
	C791.955261,88.168686 793.118286,89.559761 794.164978,89.643349 
	C800.620178,90.158783 807.101624,90.344849 813.922974,90.656342 
	C813.646118,88.695992 813.687012,88.170647 813.496094,87.750648 
	C801.403198,61.144093 789.323425,34.531391 777.102783,7.983518 
	C776.367798,6.386845 774.497375,5.312857 772.342285,3.922854 
M675.840271,146.847015 
	C675.896362,145.019302 675.997009,143.191696 676.000793,141.363876 
	C676.017273,133.443832 675.952026,133.211227 667.891418,133.150009 
	C651.418945,133.024872 634.943665,133.216080 618.472290,133.028549 
	C614.412048,132.982330 613.921387,134.815659 613.936707,138.190460 
	C614.041565,161.324997 613.992065,184.460220 613.992065,207.595230 
	C613.992126,221.028503 613.991943,221.028503 627.219971,221.008102 
	C634.125732,220.997452 634.374268,220.760498 634.638672,213.746964 
	C634.682495,212.583588 634.651062,211.417282 634.650452,210.252335 
	C634.640381,191.779602 634.691284,173.306442 634.566223,154.834488 
	C634.541809,151.228683 635.636230,149.841217 639.438171,149.929886 
	C649.419067,150.162689 659.412048,150.137146 669.392822,149.901840 
	C671.453125,149.853271 673.481567,148.448669 675.840271,146.847015 
z"/>
<path fill="#272725" opacity="1.000000" stroke="none" 
	d="
M1042.454102,223.000000 
	C1036.193604,220.982285 1030.111938,219.521912 1024.643799,216.819534 
	C1015.880066,212.488419 1010.090332,205.028030 1005.953613,196.261490 
	C1005.183411,194.629364 1004.370117,193.010284 1003.461609,191.452301 
	C1001.560181,188.191849 998.903442,186.126282 994.900574,186.818710 
	C990.296753,187.615097 991.399597,191.800064 991.177063,194.475952 
	C990.654358,200.762619 991.006287,207.121964 991.002747,213.451889 
	C990.999084,219.901245 990.122131,220.899796 983.860291,221.559311 
	C983.365234,221.611450 982.861450,221.604248 982.362488,221.592316 
	C970.996704,221.320831 970.997070,221.319992 970.997253,209.836227 
	C970.997620,186.182251 971.135559,162.526779 970.882263,138.875519 
	C970.830872,134.076599 972.520874,132.534210 976.905823,132.990051 
	C977.400208,133.041443 977.904846,133.008163 978.404236,132.994919 
	C991.808533,132.639282 991.273804,132.878326 991.521667,147.901733 
	C991.584351,151.701218 990.682678,155.575272 991.174500,159.289215 
	C991.525818,161.942612 993.448547,166.487320 994.698547,166.496948 
	C997.533630,166.518768 1001.212219,164.956818 1003.047668,162.776138 
	C1006.179077,159.055649 1007.765442,154.073929 1010.689636,150.133057 
	C1022.979675,133.569763 1046.576782,127.490860 1066.112671,135.096237 
	C1084.287231,142.171646 1093.831543,160.121124 1094.313721,176.809021 
	C1095.057251,202.537201 1074.439087,220.876862 1052.153076,222.615479 
	C1048.969360,223.000000 1045.938843,223.000000 1042.454102,223.000000 
M1075.996948,174.759659 
	C1075.358643,164.416824 1069.378662,157.334793 1060.709839,153.202408 
	C1050.545532,148.357056 1040.515991,149.786713 1031.850464,157.634109 
	C1022.356689,166.231689 1020.356934,176.745148 1025.121094,188.157074 
	C1029.329346,198.237457 1037.601807,203.487274 1048.588379,204.386719 
	C1061.402832,205.435837 1078.034302,192.806686 1075.996948,174.759659 
z"/>
<path fill="#292927" opacity="1.000000" stroke="none" 
	d="
M367.550018,1.000002 
	C371.598450,1.681204 375.244904,2.175111 378.785156,3.083185 
	C385.831085,4.890448 392.080566,8.237680 397.011566,13.688109 
	C403.086456,20.402868 403.906738,28.552042 398.979126,36.067719 
	C394.088928,43.526207 393.684662,45.309944 400.223907,52.113071 
	C410.914307,63.234901 405.707520,80.132942 390.068420,87.200882 
	C380.294220,91.618233 369.957336,92.919144 359.477844,91.544388 
	C352.149963,90.583092 344.830566,88.874626 337.788300,86.621727 
	C331.437927,84.590179 330.213562,79.649353 333.636627,73.935089 
	C335.604736,70.649696 338.105591,69.738228 342.003479,70.676498 
	C349.341034,72.442749 356.789886,74.334396 364.266541,74.713753 
	C368.729279,74.940186 373.799316,73.166153 377.708008,70.814713 
	C380.283997,69.265030 382.880035,64.883026 382.529724,62.145058 
	C382.183044,59.435223 378.496399,56.587921 375.620605,54.948071 
	C373.386322,53.674019 370.151520,54.004925 367.351532,53.907665 
	C363.195099,53.763298 359.016846,54.081165 354.871307,53.824425 
	C347.815399,53.387436 345.741455,50.663589 347.096252,43.765614 
	C347.796722,40.199181 349.637543,37.922058 353.857452,37.917019 
	C359.482971,37.910305 365.143707,37.645908 370.721130,36.947758 
	C374.816559,36.435116 378.314392,34.378193 379.088196,29.760302 
	C379.919128,24.801363 376.467987,22.564495 372.755646,20.837292 
	C365.250671,17.345531 357.559418,18.732973 349.913513,20.374126 
	C348.471558,20.683632 347.108765,21.354881 345.669495,21.685038 
	C339.655334,23.064606 336.409058,20.981018 334.753204,14.763506 
	C333.445312,9.852508 335.034760,6.766785 340.725677,5.245660 
	C346.596191,3.676532 352.679626,2.903786 358.834961,1.391309 
	C361.700012,1.000000 364.400024,1.000000 367.550018,1.000002 
z"/>
<path fill="#FEFEFE" opacity="1.000000" stroke="none" 
	d="
M1.000000,10.000000 
	C1.000000,7.020661 1.000000,4.041321 1.000000,1.000000 
	C19.020853,1.000000 37.041767,1.000000 55.528610,1.319896 
	C56.280106,2.135053 56.565678,2.630314 56.975235,3.449400 
	C60.809025,9.411288 64.699600,14.942383 68.132812,20.744127 
	C69.372261,22.838652 70.223381,25.638020 70.036743,28.020576 
	C69.147034,39.378647 67.839302,50.703968 66.412582,62.335735 
	C65.817497,67.118629 65.490097,71.606720 65.102119,76.498764 
	C65.495636,78.879684 65.359062,81.353264 66.520927,82.735184 
	C69.355835,86.107025 72.792015,88.973351 76.077682,92.365547 
	C81.047501,97.468910 85.925735,102.249931 90.969299,107.328888 
	C98.238937,114.831657 105.343231,122.036499 112.447525,129.241348 
	C112.157097,129.569077 111.866661,129.896790 111.576233,130.224518 
	C104.719444,126.123718 97.862663,122.022911 90.891815,117.597717 
	C85.867485,114.248802 80.957222,111.224281 75.714584,108.072601 
	C66.551270,102.462067 57.620335,97.129112 48.967743,91.377426 
	C47.075981,90.119911 45.397270,87.524063 44.949821,85.279549 
	C42.366230,72.319633 40.298168,59.257732 37.798954,46.279778 
	C36.912498,41.676579 36.591896,36.080658 33.789101,32.893787 
	C24.914770,22.803385 14.989692,13.637096 4.898163,3.540349 
	C3.782817,5.909239 2.842572,7.906230 1.677855,9.937759 
	C1.453383,9.972299 1.000000,10.000000 1.000000,10.000000 
z"/>
<path fill="#838383" opacity="1.000000" stroke="none" 
	d="
M1.000000,10.468657 
	C1.000000,10.000000 1.453383,9.972299 1.727029,10.410479 
	C1.996313,14.510879 1.989647,18.173098 1.987931,21.835320 
	C1.958526,84.589607 1.929736,147.343887 1.900810,210.098175 
	C1.900810,210.098175 1.452223,210.032410 1.226112,210.016205 
	C1.000000,143.645767 1.000000,77.291542 1.000000,10.468657 
z"/>
<path fill="#838383" opacity="1.000000" stroke="none" 
	d="
M56.851254,3.125575 
	C56.565678,2.630314 56.280106,2.135053 55.997269,1.319896 
	C89.354225,1.000000 122.708458,1.000000 156.531342,1.000000 
	C157.000000,1.000000 156.944199,1.466869 156.543182,1.744428 
	C124.553749,2.009496 92.965294,1.981271 61.376965,2.033044 
	C59.867798,2.035517 58.359798,2.745221 56.851254,3.125575 
z"/>
<path fill="#272725" opacity="1.000000" stroke="none" 
	d="
M56.975235,3.449400 
	C58.359798,2.745221 59.867798,2.035517 61.376965,2.033044 
	C92.965294,1.981271 124.553749,2.009496 156.613800,1.968667 
	C163.311371,3.934454 165.574783,7.212387 165.585663,14.709724 
	C165.625305,42.029842 165.600342,69.350044 165.609192,96.670219 
	C165.620422,131.316895 165.642120,165.963577 165.654572,200.610260 
	C165.655396,202.942474 165.790222,205.291779 165.563141,207.603699 
	C164.896820,214.387360 160.883636,217.993179 154.082840,217.995026 
	C106.930611,218.007828 59.778355,217.978836 12.626188,218.033920 
	C7.297029,218.040146 3.827664,215.748383 1.961499,210.449936 
	C1.929736,147.343887 1.958526,84.589607 1.987931,21.835320 
	C1.989647,18.173098 1.996313,14.510879 1.951502,10.375939 
	C2.842572,7.906230 3.782817,5.909239 4.898163,3.540349 
	C14.989692,13.637096 24.914770,22.803385 33.789101,32.893787 
	C36.591896,36.080658 36.912498,41.676579 37.798954,46.279778 
	C40.298168,59.257732 42.366230,72.319633 44.949821,85.279549 
	C45.397270,87.524063 47.075981,90.119911 48.967743,91.377426 
	C57.620335,97.129112 66.551270,102.462067 75.724625,108.524765 
	C76.082207,119.423698 76.101524,129.743317 76.111275,140.062943 
	C76.119667,148.941559 76.123108,148.692108 85.006866,148.986771 
	C89.766495,149.144653 91.066063,147.313583 90.955521,142.883972 
	C90.748009,134.568954 90.965271,126.243324 91.005875,117.922112 
	C97.862663,122.022911 104.719444,126.123718 111.576233,130.224518 
	C111.866661,129.896790 112.157097,129.569077 112.447525,129.241348 
	C105.343231,122.036499 98.238937,114.831657 90.992554,106.862000 
	C90.850456,96.204903 90.850456,86.312622 90.850456,76.136818 
	C97.569290,76.136818 103.376976,76.150505 109.184570,76.133774 
	C119.109589,76.105179 117.715286,76.986641 118.098930,67.314568 
	C118.280304,62.741653 116.561691,61.604065 112.322769,61.784012 
	C105.388306,62.078384 98.432236,61.863625 90.876236,61.863625 
	C90.876236,55.569019 90.886795,49.799129 90.873932,44.029289 
	C90.850731,33.625786 91.797249,34.876602 81.486572,34.594315 
	C77.340004,34.480789 75.883148,35.856689 76.048447,40.033569 
	C76.329102,47.125595 76.125633,54.236782 76.125633,61.622524 
	C72.583282,61.779446 69.631775,61.910194 66.680267,62.040939 
	C67.839302,50.703968 69.147034,39.378647 70.036743,28.020576 
	C70.223381,25.638020 69.372261,22.838652 68.132812,20.744127 
	C64.699600,14.942383 60.809025,9.411288 56.975235,3.449400 
z"/>
<path fill="#292927" opacity="1.000000" stroke="none" 
	d="
M420.134003,31.999985 
	C420.132996,24.169910 420.319550,16.833250 420.062469,9.512170 
	C419.901276,4.921896 422.105011,3.500688 426.223633,3.123801 
	C433.417023,2.465544 438.654083,4.214090 442.511993,11.229589 
	C449.821259,24.521349 458.067017,37.298889 465.959167,50.268463 
	C466.981567,51.948582 468.214355,53.500652 470.110748,56.192207 
	C473.780518,50.157810 477.074036,44.802097 480.308380,39.410885 
	C486.590698,28.939125 492.782013,18.412260 499.129059,7.980036 
	C501.955597,3.334272 513.294739,1.075398 517.491882,4.319441 
	C518.337646,4.973135 518.801758,6.606288 518.806885,7.790622 
	C518.919189,33.777302 518.932495,59.764385 518.994629,85.751320 
	C519.001343,88.544891 518.076111,90.217628 514.945374,90.056999 
	C513.980713,90.007507 513.001404,90.480270 512.015320,90.579071 
	C501.803528,91.602165 499.994446,89.981560 499.994507,79.868546 
	C499.994568,69.539787 500.035736,59.210716 499.958862,48.882526 
	C499.943939,46.874645 499.469055,44.870193 499.206329,42.864159 
	C498.692993,42.726402 498.179657,42.588642 497.666321,42.450882 
	C494.416962,47.652485 491.119141,52.824627 487.931305,58.063663 
	C484.501129,63.701057 481.379150,69.536247 477.753204,75.041801 
	C472.547577,82.945900 466.758698,82.837479 461.591125,74.913315 
	C455.449188,65.495018 449.425232,55.999817 443.332245,46.549488 
	C442.680054,45.537914 441.908447,44.603352 440.461548,42.643162 
	C440.231995,45.126240 440.023407,46.347462 440.020935,47.569103 
	C439.996277,59.730339 439.932800,71.892342 440.048370,84.052528 
	C440.084625,87.863655 438.959930,90.176369 434.746613,90.060028 
	C434.113708,90.042549 433.481323,90.476799 432.830780,90.557465 
	C421.884674,91.914642 420.128143,90.371681 420.131653,79.478912 
	C420.136658,63.819271 420.133575,48.159630 420.134003,31.999985 
z"/>
<path fill="#2A2A28" opacity="1.000000" stroke="none" 
	d="
M265.169647,47.146492 
	C274.565125,34.312054 283.977295,21.924236 292.932495,9.214420 
	C296.088196,4.735597 299.759430,2.908729 305.058167,3.086800 
	C319.957611,3.587513 317.813080,2.277538 317.856384,15.602526 
	C317.929443,38.094719 317.779541,60.588055 317.951904,83.079163 
	C317.986847,87.637650 317.061340,90.515533 311.867798,90.302597 
	C308.080475,90.147301 304.110291,90.705597 300.580963,89.693184 
	C298.982208,89.234581 297.329254,85.756111 297.283417,83.613777 
	C296.987915,69.791420 297.129913,55.959702 297.128387,42.131050 
	C297.128235,40.543015 297.128357,38.954979 297.128357,37.366943 
	C296.798340,37.249882 296.468353,37.132824 296.138336,37.015762 
	C291.060272,43.644161 285.928131,50.231956 280.917114,56.910667 
	C273.770447,66.435806 266.613861,75.956429 259.652618,85.616692 
	C255.247375,91.729919 248.872971,90.204765 242.905975,90.511147 
	C237.362808,90.795761 236.180557,87.904373 236.231964,82.821999 
	C236.476257,58.671345 236.353699,34.517109 236.396103,10.364209 
	C236.407181,4.061595 236.898590,3.591038 243.010300,3.192377 
	C256.583069,2.307039 257.009735,2.699945 257.009949,16.088020 
	C257.010132,29.552473 257.010010,43.016926 257.010010,58.023365 
	C260.209686,53.799080 262.608032,50.632706 265.169647,47.146492 
z"/>
<path fill="#282826" opacity="1.000000" stroke="none" 
	d="
M321.369324,134.330383 
	C340.078491,133.077606 358.409851,131.237549 376.640717,135.904968 
	C392.191681,139.886292 398.516083,159.318130 387.998657,170.459229 
	C384.414856,174.255585 385.170074,176.241928 390.620392,181.027328 
	C397.994690,187.501984 399.589111,200.791870 393.725616,208.506378 
	C387.765717,216.347748 379.622314,220.657288 369.887634,220.901688 
	C354.753601,221.281647 339.602844,220.958603 324.459839,221.045563 
	C321.662323,221.061630 320.082123,220.463043 320.090057,217.241257 
	C320.155670,190.615723 320.124573,163.989944 320.174805,137.364349 
	C320.176544,136.438812 320.723724,135.514313 321.369324,134.330383 
M365.562744,205.393173 
	C366.214539,205.262299 366.879456,205.176865 367.516144,204.993530 
	C374.067780,203.106827 376.674469,199.911163 376.311005,194.241165 
	C375.942688,188.495621 372.465881,185.029892 365.847076,184.375168 
	C361.728485,183.967804 357.550354,183.918411 353.408325,184.036743 
	C339.895050,184.422852 339.894806,184.480881 340.004211,198.033112 
	C340.013580,199.195251 340.116577,200.357864 340.095062,201.518753 
	C340.041351,204.418884 341.382629,205.755997 344.329742,205.715561 
	C351.127625,205.622284 357.926971,205.638107 365.562744,205.393173 
M371.099670,154.823822 
	C369.329681,153.162308 367.640350,150.179672 365.775909,150.065903 
	C357.299744,149.548660 348.774261,149.839264 339.999329,149.839264 
	C339.999329,154.993484 340.100677,159.811005 339.967316,164.622040 
	C339.860291,168.483536 341.744965,170.208481 345.389954,170.048523 
	C351.360168,169.786514 357.388489,169.784439 363.272522,168.887344 
	C370.860016,167.730606 373.230255,163.398010 371.099670,154.823822 
z"/>
<path fill="#292927" opacity="1.000000" stroke="none" 
	d="
M868.992432,210.926575 
	C868.992676,186.624817 869.109558,162.812256 868.890869,139.002777 
	C868.849121,134.457443 870.676453,133.105087 874.698853,133.114716 
	C891.364868,133.154633 888.837524,133.401688 889.486084,147.404510 
	C889.938477,157.171448 889.140747,166.992447 889.045715,176.790695 
	C889.013855,180.074280 889.427795,183.362183 889.739075,188.228714 
	C895.413269,180.804672 900.318970,174.539398 905.058105,168.150589 
	C912.643127,157.925217 920.088501,147.596268 927.653625,137.356049 
	C930.584900,133.388336 944.292236,131.225327 947.975891,134.190811 
	C948.679382,134.757111 948.963318,136.170990 948.987732,137.204544 
	C949.258545,148.668457 949.530518,160.133743 949.621216,171.600113 
	C949.719543,184.033401 950.066223,196.488129 949.503357,208.897171 
	C948.832581,223.684601 950.546265,220.585037 937.484619,221.027267 
	C931.164246,221.241257 929.303711,220.478836 929.396912,211.996933 
	C929.556641,197.464935 929.441040,182.929932 929.441040,168.396179 
	C929.023438,168.166733 928.605774,167.937286 928.188171,167.707840 
	C926.020935,170.215714 923.679749,172.595108 921.716187,175.253357 
	C912.468689,187.772430 903.038208,200.171677 894.244812,213.005463 
	C888.434387,221.485626 880.336609,221.575714 871.742126,220.732483 
	C870.727905,220.632965 869.420288,218.681931 869.111206,217.383850 
	C868.660950,215.492615 868.993591,213.414993 868.992432,210.926575 
z"/>
<path fill="#282826" opacity="1.000000" stroke="none" 
	d="
M683.996094,20.975578 
	C683.996033,16.651390 684.087891,12.817288 683.967651,8.989847 
	C683.866333,5.763097 685.408081,4.094523 688.448914,3.565521 
	C689.266846,3.423226 690.080933,3.227031 690.905334,3.157932 
	C703.482178,2.103814 704.003723,2.579751 704.004028,15.031144 
	C704.004639,38.018429 703.905396,61.006508 704.091187,83.992294 
	C704.126282,88.338913 703.325012,90.840691 698.404175,90.012657 
	C698.080627,89.958221 697.734619,89.975395 697.406738,90.018150 
	C682.003784,92.026520 684.086731,87.864868 683.546082,75.298378 
	C683.332703,70.338249 684.000732,65.345352 683.928406,60.372314 
	C683.872681,56.546318 682.096741,54.402298 677.702942,54.531200 
	C668.882446,54.789967 660.046387,54.733456 651.221802,54.556572 
	C646.457397,54.461075 644.757874,56.411385 644.924316,61.141991 
	C645.193604,68.793137 644.931274,76.462265 644.935791,84.123772 
	C644.937988,87.847229 643.695557,90.207649 639.429871,90.040779 
	C635.666138,89.893539 631.872864,89.788605 628.127014,90.090950 
	C624.149475,90.411964 623.940613,88.270561 623.952698,85.210007 
	C624.034912,64.388512 623.995911,43.566544 623.995911,22.744730 
	C623.995911,17.804483 624.204224,12.852320 623.923035,7.928125 
	C623.731384,4.572031 625.235413,3.705170 628.186523,3.352600 
	C643.354065,1.540559 645.003784,2.942981 645.003906,18.174473 
	C645.003906,22.505411 645.105591,26.839403 644.975464,31.166424 
	C644.846680,35.448784 646.805420,37.108902 651.017151,37.040436 
	C660.009766,36.894257 669.010681,36.835884 677.999512,37.070728 
	C681.883118,37.172192 683.538452,35.352711 683.795532,31.947096 
	C684.058044,28.469021 683.944763,24.962574 683.996094,20.975578 
z"/>
<path fill="#272725" opacity="1.000000" stroke="none" 
	d="
M512.997070,176.999954 
	C512.996826,163.558823 513.107056,150.616043 512.917114,137.677673 
	C512.870972,134.534943 514.269470,133.589066 516.895508,133.327576 
	C517.226990,133.294586 517.556702,133.243042 517.888245,133.210312 
	C531.814331,131.835999 533.002625,132.890991 533.002686,146.626968 
	C533.002747,151.459152 533.033081,156.291595 532.993103,161.123459 
	C532.961487,164.952072 533.981384,167.527893 538.603271,167.446854 
	C548.047546,167.281219 557.496765,167.368042 566.943787,167.401840 
	C570.855225,167.415833 572.107361,165.359055 572.035828,161.705688 
	C571.902222,154.876602 571.921204,148.041885 572.022888,141.211670 
	C572.108887,135.439392 573.634033,133.843323 579.236816,133.192200 
	C579.895752,133.115616 580.568115,133.152588 581.234253,133.139511 
	C592.736267,132.913742 593.002563,133.168564 593.002563,144.394241 
	C593.002563,168.055283 592.890198,191.717316 593.100830,215.376480 
	C593.141296,219.915176 591.494690,221.105804 587.304443,221.062943 
	C571.735352,220.903656 571.793884,222.527771 571.988220,206.055130 
	C572.047180,201.057007 571.913452,196.055771 572.023499,191.059387 
	C572.114136,186.948288 570.398071,184.935104 566.155029,184.976959 
	C557.324646,185.064102 548.492310,184.948151 539.661743,185.023590 
	C534.293884,185.069443 533.064331,186.366959 533.018677,191.905273 
	C532.955566,199.569580 532.854858,207.238800 533.059814,214.898148 
	C533.178162,219.322220 530.829712,220.755066 527.015320,220.997253 
	C526.517395,221.028854 526.015747,220.998489 525.515930,221.003448 
	C513.286926,221.125122 513.191956,221.126587 513.025940,208.823593 
	C512.885010,198.384155 512.997009,187.941284 512.997070,176.999954 
z"/>
<path fill="#282826" opacity="1.000000" stroke="none" 
	d="
M796.576050,175.592834 
	C795.365295,184.225296 794.772949,192.539276 792.777588,200.501678 
	C791.492798,205.628159 788.670532,210.604111 785.601868,214.993454 
	C781.056030,221.495743 773.957825,223.131821 766.542236,221.723862 
	C764.413269,221.319641 762.027039,218.569824 761.096252,216.337753 
	C759.247681,211.904404 760.929688,206.943665 764.577087,204.857712 
	C776.001099,198.324295 777.342957,187.449280 778.038696,176.320053 
	C778.743042,165.052902 778.729370,153.739975 778.988525,142.446152 
	C779.169189,134.574432 780.685730,132.997177 788.305725,132.995972 
	C807.609619,132.992920 826.913513,132.994949 846.892822,132.994949 
	C847.233276,135.905884 847.814819,138.602448 847.822693,141.300690 
	C847.895325,166.104553 847.820862,190.908936 847.922180,215.712601 
	C847.937317,219.422363 846.987183,221.368011 842.858582,221.061752 
	C839.264771,220.795151 835.622009,220.809616 832.025635,221.057724 
	C827.918884,221.341034 826.925049,219.393417 826.945129,215.682968 
	C827.052124,195.870804 826.860962,176.056198 827.092896,156.246170 
	C827.148865,151.464401 825.692261,149.530548 820.860657,149.807251 
	C815.881714,150.092392 810.874390,149.836563 805.883972,149.977463 
	C799.339111,150.162262 797.160706,152.495834 797.002930,159.158798 
	C796.876953,164.481155 796.734619,169.803146 796.576050,175.592834 
z"/>
<path fill="#2B2B29" opacity="1.000000" stroke="none" 
	d="
M302.877380,140.142502 
	C302.800507,148.853027 301.658325,149.998062 293.374390,150.008026 
	C283.218109,150.020248 273.059174,150.146133 262.906830,149.946060 
	C258.733276,149.863785 257.108124,151.904404 257.044464,155.576981 
	C256.806549,169.301163 257.144348,168.287842 268.841675,168.363861 
	C276.954742,168.416580 285.074280,168.604279 293.174896,169.033997 
	C298.414459,169.311966 297.586029,173.876480 297.495087,176.977402 
	C297.401947,180.153564 297.399597,184.102829 292.055908,184.083511 
	C282.155304,184.047745 272.253937,184.512955 262.351227,184.633087 
	C258.441498,184.680527 257.033112,186.799545 257.022095,190.287582 
	C256.971710,206.230682 256.092773,203.918381 269.938202,204.297028 
	C279.244568,204.551590 288.564026,204.412430 297.876465,204.325241 
	C302.248688,204.284302 304.472351,206.056671 304.013000,210.600693 
	C303.996338,210.765503 304.009583,210.933487 304.011078,211.099960 
	C304.099152,221.010803 304.099182,221.010696 294.402008,221.010712 
	C276.753387,221.010757 259.103699,220.908554 241.456985,221.091187 
	C237.591522,221.131195 236.233704,220.135864 236.261276,216.074783 
	C236.436386,190.274429 236.460999,164.471756 236.280762,138.671616 
	C236.251602,134.496552 237.585022,133.163757 241.602539,133.179016 
	C260.243591,133.249817 278.885834,133.199936 297.526489,133.048767 
	C302.435913,133.008942 302.544647,136.329422 302.877380,140.142502 
z"/>
<path fill="#292927" opacity="1.000000" stroke="none" 
	d="
M734.809570,168.136566 
	C736.446716,168.222122 737.611816,168.278397 738.771545,168.389999 
	C745.643982,169.051315 747.881775,171.894226 746.797607,178.755646 
	C746.292053,181.955582 745.139404,184.144531 741.054993,184.104370 
	C731.303284,184.008469 721.547302,184.488739 711.791565,184.572403 
	C708.551147,184.600174 706.799561,185.873688 706.475098,189.106552 
	C706.393005,189.924759 706.090942,190.722366 706.023987,191.540405 
	C705.126038,202.506744 706.574463,204.240738 717.362976,204.353058 
	C727.018799,204.453613 736.681213,204.139801 746.331421,204.381943 
	C748.521484,204.436920 752.388245,205.811066 752.536072,206.957855 
	C753.084717,211.214813 752.473694,215.636948 752.069153,219.975693 
	C752.030579,220.389999 750.397339,220.945328 749.503174,220.947662 
	C728.549438,221.002502 707.595520,220.990143 686.318542,220.990143 
	C686.318542,191.815414 686.318542,163.076019 686.318542,132.993317 
	C694.342651,132.993317 702.416870,132.984924 710.491150,132.995331 
	C721.818237,133.009918 733.145447,133.071594 744.472473,133.048447 
	C751.081421,133.034943 751.901611,133.784225 752.006470,140.463531 
	C752.133728,148.570221 751.180725,149.934265 744.827820,149.982132 
	C734.165771,150.062485 723.495911,150.225983 712.843201,149.900452 
	C708.506226,149.767914 706.740967,151.681381 706.161011,155.420044 
	C705.908264,157.049881 705.971191,158.742584 706.020386,160.402893 
	C706.211243,166.853531 707.512024,168.284988 713.856934,168.349808 
	C720.681519,168.419525 727.508911,168.216736 734.809570,168.136566 
z"/>
<path fill="#2B2B29" opacity="1.000000" stroke="none" 
	d="
M541.368286,89.701012 
	C540.786804,83.323692 540.381042,77.201477 540.360901,71.077995 
	C540.292664,50.255009 540.469482,29.430586 540.281006,8.609171 
	C540.244934,4.629017 541.540833,3.332783 545.334045,3.334603 
	C563.990295,3.343557 582.646729,3.148097 601.302795,3.180549 
	C605.780701,3.188338 607.120972,5.565104 606.862305,12.126712 
	C606.706238,16.086924 605.946106,19.228674 600.653931,19.093180 
	C589.997437,18.820347 579.329041,18.992146 568.665649,19.019367 
	C562.486877,19.035141 561.066406,20.486139 561.013184,26.655880 
	C561.003113,27.822109 561.005798,28.988539 561.012939,30.154810 
	C561.049866,36.188248 562.609253,37.895054 568.635193,37.962986 
	C577.298157,38.060642 585.963074,37.969528 594.627075,37.995167 
	C599.780029,38.010418 601.396057,39.737000 601.617126,45.321091 
	C601.848022,51.152054 600.251709,53.501495 595.036987,53.662979 
	C585.882568,53.946461 576.711548,54.005413 567.555542,53.799797 
	C562.817444,53.693390 561.023682,55.578651 560.962952,60.196793 
	C560.781311,73.989311 560.693787,73.988243 574.456116,73.988495 
	C583.786621,73.988655 593.118713,74.086182 602.446960,73.941269 
	C606.260376,73.882019 607.846436,75.495667 608.040527,79.203789 
	C608.618652,90.250038 608.364319,90.594528 597.123108,90.618454 
	C581.130310,90.652489 565.137207,90.680489 549.144592,90.631371 
	C546.669312,90.623764 544.195374,90.191452 541.368286,89.701012 
z"/>
<path fill="#292927" opacity="1.000000" stroke="none" 
	d="
M410.212463,203.158661 
	C419.941498,181.621933 429.600220,160.469360 439.014130,139.208405 
	C440.977966,134.773178 443.849335,133.443771 448.549622,132.949799 
	C458.061279,131.950211 463.364258,134.921814 467.271484,144.362244 
	C477.350159,168.713821 488.759979,192.515686 499.715118,216.501953 
	C501.360413,220.104324 500.327820,221.305283 496.581055,221.035080 
	C494.427368,220.879761 492.253235,221.007050 490.088318,221.006927 
	C481.185638,221.006409 479.394623,219.778763 476.089661,211.411713 
	C472.919037,203.384750 472.197174,202.913956 463.705017,202.863235 
	C455.548676,202.814529 447.389465,202.813797 439.237732,202.577835 
	C433.906677,202.423523 430.341400,204.370316 428.779877,209.687210 
	C428.228851,211.563446 427.074158,213.253418 426.355713,215.091232 
	C424.609619,219.557663 421.449738,221.371750 416.650574,221.066696 
	C412.241150,220.786392 407.799866,221.007141 402.424713,221.007141 
	C405.236847,214.556702 407.645996,209.030518 410.212463,203.158661 
M453.839874,158.769806 
	C453.424164,157.874847 453.008453,156.979874 452.273407,155.397369 
	C447.648407,165.841049 443.236969,175.802490 438.639771,186.183441 
	C447.885101,186.183441 456.294281,186.183441 465.337982,186.183441 
	C461.467896,177.016830 457.767731,168.252762 453.839874,158.769806 
z"/>
<path fill="#292927" opacity="1.000000" stroke="none" 
	d="
M772.748779,3.959249 
	C774.497375,5.312857 776.367798,6.386845 777.102783,7.983518 
	C789.323425,34.531391 801.403198,61.144093 813.496094,87.750648 
	C813.687012,88.170647 813.646118,88.695992 813.922974,90.656342 
	C807.101624,90.344849 800.620178,90.158783 794.164978,89.643349 
	C793.118286,89.559761 791.955261,88.168686 791.258179,87.110428 
	C790.181824,85.476463 789.228149,83.683136 788.630676,81.826057 
	C786.245972,74.413483 781.896057,70.898743 773.537048,71.828186 
	C765.967224,72.669876 758.226013,72.155449 750.568237,71.948006 
	C746.273193,71.831657 743.562256,73.743286 742.122803,77.488243 
	C736.878601,91.131645 737.586121,90.690651 720.151184,90.610313 
	C718.873108,90.604431 717.597534,90.053604 715.672302,89.605026 
	C718.524292,83.076591 721.223206,76.807724 723.994690,70.571144 
	C733.235718,49.776291 742.405945,28.948532 751.906128,8.272525 
	C752.883667,6.144998 755.755493,3.824578 757.984863,3.555877 
	C762.687561,2.989052 767.547119,3.722748 772.748779,3.959249 
M762.042603,29.554527 
	C758.326111,38.334263 754.609619,47.113998 750.712952,56.319485 
	C760.192444,56.319485 768.967529,56.319485 778.441467,56.319485 
	C773.745728,45.341164 769.351929,35.068562 764.680115,24.146160 
	C763.631653,26.217709 762.966919,27.531048 762.042603,29.554527 
z"/>
<path fill="#2A2A28" opacity="1.000000" stroke="none" 
	d="
M675.682495,147.258041 
	C673.481567,148.448669 671.453125,149.853271 669.392822,149.901840 
	C659.412048,150.137146 649.419067,150.162689 639.438171,149.929886 
	C635.636230,149.841217 634.541809,151.228683 634.566223,154.834488 
	C634.691284,173.306442 634.640381,191.779602 634.650452,210.252335 
	C634.651062,211.417282 634.682495,212.583588 634.638672,213.746964 
	C634.374268,220.760498 634.125732,220.997452 627.219971,221.008102 
	C613.991943,221.028503 613.992126,221.028503 613.992065,207.595230 
	C613.992065,184.460220 614.041565,161.324997 613.936707,138.190460 
	C613.921387,134.815659 614.412048,132.982330 618.472290,133.028549 
	C634.943665,133.216080 651.418945,133.024872 667.891418,133.150009 
	C675.952026,133.211227 676.017273,133.443832 676.000793,141.363876 
	C675.997009,143.191696 675.896362,145.019302 675.682495,147.258041 
z"/>
<path fill="#FFFFFF" opacity="1.000000" stroke="none" 
	d="
M1075.996948,175.216553 
	C1078.034302,192.806686 1061.402832,205.435837 1048.588379,204.386719 
	C1037.601807,203.487274 1029.329346,198.237457 1025.121094,188.157074 
	C1020.356934,176.745148 1022.356689,166.231689 1031.850464,157.634109 
	C1040.515991,149.786713 1050.545532,148.357056 1060.709839,153.202408 
	C1069.378662,157.334793 1075.358643,164.416824 1075.996948,175.216553 
z"/>
<path fill="#B7A264" opacity="1.000000" stroke="none" 
	d="
M66.412582,62.335735 
	C69.631775,61.910194 72.583282,61.779446 76.125633,61.622524 
	C76.125633,54.236782 76.329102,47.125595 76.048447,40.033569 
	C75.883148,35.856689 77.340004,34.480789 81.486572,34.594315 
	C91.797249,34.876602 90.850731,33.625786 90.873932,44.029289 
	C90.886795,49.799129 90.876236,55.569019 90.876236,61.863625 
	C98.432236,61.863625 105.388306,62.078384 112.322769,61.784012 
	C116.561691,61.604065 118.280304,62.741653 118.098930,67.314568 
	C117.715286,76.986641 119.109589,76.105179 109.184570,76.133774 
	C103.376976,76.150505 97.569290,76.136818 90.850456,76.136818 
	C90.850456,86.312622 90.850456,96.204903 90.827209,106.564072 
	C85.925735,102.249931 81.047501,97.468910 76.112816,91.896362 
	C76.056366,86.248856 76.056366,81.392883 76.056366,76.094818 
	C71.997803,76.094818 68.580246,76.094818 65.162689,76.094818 
	C65.490097,71.606720 65.817497,67.118629 66.412582,62.335735 
z"/>
<path fill="#B39F63" opacity="1.000000" stroke="none" 
	d="
M90.891815,117.597717 
	C90.965271,126.243324 90.748009,134.568954 90.955521,142.883972 
	C91.066063,147.313583 89.766495,149.144653 85.006866,148.986771 
	C76.123108,148.692108 76.119667,148.941559 76.111275,140.062943 
	C76.101524,129.743317 76.082207,119.423698 76.056992,108.651917 
	C80.957222,111.224281 85.867485,114.248802 90.891815,117.597717 
z"/>
<path fill="#2B2B29" opacity="1.000000" stroke="none" 
	d="
M65.102119,76.498764 
	C68.580246,76.094818 71.997803,76.094818 76.056366,76.094818 
	C76.056366,81.392883 76.056366,86.248856 76.021240,91.574020 
	C72.792015,88.973351 69.355835,86.107025 66.520927,82.735184 
	C65.359062,81.353264 65.495636,78.879684 65.102119,76.498764 
z"/>
<path fill="#FDFDFD" opacity="1.000000" stroke="none" 
	d="
M365.144226,205.501434 
	C357.926971,205.638107 351.127625,205.622284 344.329742,205.715561 
	C341.382629,205.755997 340.041351,204.418884 340.095062,201.518753 
	C340.116577,200.357864 340.013580,199.195251 340.004211,198.033112 
	C339.894806,184.480881 339.895050,184.422852 353.408325,184.036743 
	C357.550354,183.918411 361.728485,183.967804 365.847076,184.375168 
	C372.465881,185.029892 375.942688,188.495621 376.311005,194.241165 
	C376.674469,199.911163 374.067780,203.106827 367.516144,204.993530 
	C366.879456,205.176865 366.214539,205.262299 365.144226,205.501434 
z"/>
<path fill="#FCFCFC" opacity="1.000000" stroke="none" 
	d="
M371.261719,155.190125 
	C373.230255,163.398010 370.860016,167.730606 363.272522,168.887344 
	C357.388489,169.784439 351.360168,169.786514 345.389954,170.048523 
	C341.744965,170.208481 339.860291,168.483536 339.967316,164.622040 
	C340.100677,159.811005 339.999329,154.993484 339.999329,149.839264 
	C348.774261,149.839264 357.299744,149.548660 365.775909,150.065903 
	C367.640350,150.179672 369.329681,153.162308 371.261719,155.190125 
z"/>
<path fill="#FCFCFC" opacity="1.000000" stroke="none" 
	d="
M453.953735,159.129242 
	C457.767731,168.252762 461.467896,177.016830 465.337982,186.183441 
	C456.294281,186.183441 447.885101,186.183441 438.639771,186.183441 
	C443.236969,175.802490 447.648407,165.841049 452.273407,155.397369 
	C453.008453,156.979874 453.424164,157.874847 453.953735,159.129242 
z"/>
<path fill="#E2E0E1" opacity="1.000000" stroke="none" 
	d="
M762.172363,29.199455 
	C762.966919,27.531048 763.631653,26.217709 764.680115,24.146160 
	C769.351929,35.068562 773.745728,45.341164 778.441467,56.319485 
	C768.967529,56.319485 760.192444,56.319485 750.712952,56.319485 
	C754.609619,47.113998 758.326111,38.334263 762.172363,29.199455 
z"/>
</svg>