<?xml version="1.0" encoding="UTF-8"?>
<svg id="Layer_1" data-name="Layer 1" xmlns="http://www.w3.org/2000/svg" viewBox="0 0 1104.84 222">
  <defs>
    <style>
      .cls-1 {
        fill: #2b2b29;
      }

      .cls-2 {
        fill: #b39f63;
      }

      .cls-3 {
        fill: #fff;
      }

      .cls-4 {
        fill: #b7a264;
      }

      .cls-5 {
        fill: #fefefe;
      }

      .cls-6 {
        fill: #838383;
      }

      .cls-7 {
        fill: #fcfcfc;
      }

      .cls-8 {
        fill: #fdfdfd;
      }
    </style>
  </defs>
  <path class="cls-3" d="M367,0c245.9,0,491.79,0,737.84,0v222c-17.59,0-35.25,0-53.22-.38,21.82-1.74,42.44-20.08,41.69-45.81-.48-16.69-10.03-34.64-28.2-41.71-19.54-7.61-43.13-1.53-55.42,15.04-2.92,3.94-4.51,8.92-7.64,12.64-1.84,2.18-5.51,3.74-8.35,3.72-1.25,0-3.17-4.55-3.52-7.21-.49-3.71.41-7.59.35-11.39-.25-15.02.29-15.26-13.12-14.91-.5.01-1,.05-1.5,0-4.38-.46-6.07,1.09-6.02,5.89.25,23.65.12,47.31.11,70.96q0,11.48,11.37,11.76c.5.01,1,.02,1.5-.03,6.26-.66,7.14-1.66,7.14-8.11,0-6.33-.35-12.69.17-18.98.22-2.68-.88-6.86,3.72-7.66,4-.69,6.66,1.37,8.56,4.63.91,1.56,1.72,3.18,2.49,4.81,4.14,8.77,9.93,16.23,18.69,20.56,5.47,2.7,11.55,4.16,17.36,6.18H0c0-4.06,0-8.06.23-12.51.23-.46.67-.39.74-.04,1.87,5.3,5.34,7.59,10.66,7.58,47.15-.06,94.3-.03,141.46-.04,6.8,0,10.81-3.61,11.48-10.39.23-2.31.09-4.66.09-6.99-.01-34.65-.03-69.29-.05-103.94,0-27.32.02-54.64-.02-81.96-.01-7.5-2.27-10.78-8.57-13.02-.07-.22-.01-.69-.01-.69,67.02,0,134.05,0,201.37.39-5.69,1.51-11.77,2.29-17.64,3.85-5.69,1.52-7.28,4.61-5.97,9.52,1.66,6.22,4.9,8.3,10.92,6.92,1.44-.33,2.8-1,4.24-1.31,7.65-1.64,15.34-3.03,22.84.46,3.71,1.73,7.16,3.96,6.33,8.92-.77,4.62-4.27,6.67-8.37,7.19-5.58.7-11.24.96-16.86.97-4.22,0-6.06,2.28-6.76,5.85-1.35,6.9.72,9.62,7.78,10.06,4.15.26,8.32-.06,12.48.08,2.8.1,6.03-.23,8.27,1.04,2.88,1.64,6.56,4.49,6.91,7.2.35,2.74-2.25,7.12-4.82,8.67-3.91,2.35-8.98,4.13-13.44,3.9-7.48-.38-14.93-2.27-22.26-4.04-3.9-.94-6.4-.03-8.37,3.26-3.42,5.71-2.2,10.66,4.15,12.69,7.04,2.25,14.36,3.96,21.69,4.92,10.48,1.37,20.82.07,30.59-4.34,15.64-7.07,20.85-23.97,10.16-35.09-6.54-6.8-6.13-8.59-1.24-16.05,4.93-7.52,4.11-15.66-1.97-22.38-4.93-5.45-11.18-8.8-18.23-10.6C374.24,1.18,370.6.68,367,0M419.13,31.5c0,15.66,0,31.32,0,46.98,0,10.89,1.75,12.44,12.7,11.08.65-.08,1.28-.51,1.92-.5,4.21.12,5.34-2.2,5.3-6.01-.12-12.16-.05-24.32-.03-36.48,0-1.22.21-2.44.44-4.93,1.45,1.96,2.22,2.89,2.87,3.91,6.09,9.45,12.12,18.95,18.26,28.36,5.17,7.92,10.96,8.03,16.16.13,3.63-5.51,6.75-11.34,10.18-16.98,3.19-5.24,6.49-10.41,9.74-15.61.51.14,1.03.28,1.54.41.26,2.01.74,4.01.75,6.02.08,10.33.04,20.66.04,30.99,0,10.11,1.81,11.73,12.02,10.71.99-.1,1.97-.57,2.93-.52,3.13.16,4.06-1.51,4.05-4.31-.06-25.99-.08-51.97-.19-77.96,0-1.18-.47-2.82-1.32-3.47-4.2-3.24-15.54-.99-18.36,3.66-6.35,10.43-12.54,20.96-18.82,31.43-3.23,5.39-6.53,10.75-10.2,16.78-1.9-2.69-3.13-4.24-4.15-5.92-7.89-12.97-16.14-25.75-23.45-39.04-3.86-7.02-9.09-8.76-16.29-8.11-4.12.38-6.32,1.8-6.16,6.39.26,7.32.07,14.66.07,22.99M264.01,46.47c-2.4,3.17-4.8,6.33-8,10.56,0-15.01,0-28.47,0-41.94,0-13.39-.43-13.78-14-12.9-6.11.4-6.6.87-6.61,7.17-.04,24.15.08,48.31-.16,72.46-.05,5.08,1.13,7.97,6.67,7.69,5.97-.31,12.34,1.22,16.75-4.89,6.96-9.66,14.12-19.18,21.26-28.71,5.01-6.68,10.14-13.27,15.22-19.89.33.12.66.23.99.35,0,1.59,0,3.18,0,4.76,0,13.83-.14,27.66.16,41.48.05,2.14,1.7,5.62,3.3,6.08,3.53,1.01,7.5.45,11.29.61,5.19.21,6.12-2.66,6.08-7.22-.17-22.49-.02-44.98-.1-67.48-.04-13.32,2.1-12.02-12.8-12.52-5.3-.18-8.97,1.65-12.13,6.13-8.96,12.71-18.37,25.1-27.93,38.25M320.02,133.59c-.29.92-.84,1.85-.84,2.78-.05,26.63-.02,53.25-.08,79.88,0,3.22,1.57,3.82,4.37,3.8,15.14-.09,30.29.24,45.43-.14,9.73-.24,17.88-4.55,23.84-12.4,5.86-7.71,4.27-21-3.11-27.48-5.45-4.79-6.21-6.77-2.62-10.57,10.52-11.14,4.19-30.57-11.36-34.55-18.23-4.67-36.56-2.83-55.62-1.32M867.99,210.42c0,2-.33,4.08.12,5.97.31,1.3,1.62,3.25,2.63,3.35,8.59.84,16.69.75,22.5-7.73,8.79-12.83,18.22-25.23,27.47-37.75,1.96-2.66,4.3-5.04,6.47-7.55.42.23.84.46,1.25.69,0,14.53.12,29.07-.04,43.6-.09,8.48,1.77,9.24,8.09,9.03,13.06-.44,11.35,2.66,12.02-12.13.56-12.41.22-24.86.12-37.3-.09-11.47-.36-22.93-.63-34.4-.02-1.03-.31-2.45-1.01-3.01-3.68-2.97-17.39-.8-20.32,3.17-7.57,10.24-15.01,20.57-22.6,30.79-4.74,6.39-9.64,12.65-15.32,20.08-.31-4.87-.73-8.15-.69-11.44.1-9.8.89-19.62.44-29.39-.65-14,1.88-14.25-14.79-14.29-4.02,0-5.85,1.34-5.81,5.89.22,23.81.1,47.62.1,72.41M683,20.47c-.05,3.49.06,7-.2,10.48-.26,3.41-1.91,5.23-5.8,5.12-8.99-.23-17.99-.18-26.98-.03-4.21.07-6.17-1.59-6.04-5.87.13-4.33.03-8.66.03-12.99,0-15.23-1.65-16.63-16.82-14.82-2.95.35-4.46,1.22-4.26,4.58.28,4.92.07,9.88.07,14.82,0,20.82.04,41.64-.04,62.47-.01,3.06.2,5.2,4.17,4.88,3.75-.3,7.54-.2,11.3-.05,4.27.17,5.51-2.19,5.51-5.92,0-7.66.26-15.33-.01-22.98-.17-4.73,1.53-6.68,6.3-6.59,8.82.18,17.66.23,26.48-.03,4.39-.13,6.17,2.02,6.23,5.84.07,4.97-.6,9.97-.38,14.93.54,12.57-1.54,16.73,13.86,14.72.33-.04.67-.06,1,0,4.92.83,5.72-1.67,5.69-6.02-.19-22.99-.09-45.97-.09-68.96,0-12.45-.52-12.93-13.1-11.87-.82.07-1.64.27-2.46.41-3.04.53-4.58,2.2-4.48,5.42.12,3.83.03,7.66.03,12.48M512,176.5c0,10.44-.11,20.88.03,31.32.17,12.3.26,12.3,12.49,12.18.5,0,1,.03,1.5,0,3.81-.24,6.16-1.68,6.04-6.1-.2-7.66-.1-15.33-.04-22.99.05-5.54,1.28-6.84,6.64-6.88,8.83-.08,17.66.04,26.49-.05,4.24-.04,5.96,1.97,5.87,6.08-.11,5,.02,10-.04,15-.19,16.47-.25,14.85,15.32,15.01,4.19.04,5.84-1.15,5.8-5.69-.21-23.66-.1-47.32-.1-70.98,0-11.23-.27-11.48-11.77-11.25-.67.01-1.34-.02-2,.05-5.6.65-7.13,2.25-7.21,8.02-.1,6.83-.12,13.66.01,20.49.07,3.65-1.18,5.71-5.09,5.7-9.45-.03-18.9-.12-28.34.05-4.62.08-5.64-2.49-5.61-6.32.04-4.83,0-9.66,0-14.5,0-13.74-1.19-14.79-15.11-13.42-.33.03-.66.08-.99.12-2.63.26-4.02,1.21-3.98,4.35.19,12.94.08,25.88.08,39.82M795.6,174.13c.14-5.32.28-10.64.4-15.97.16-6.66,2.34-9,8.88-9.18,4.99-.14,10,.11,14.98-.17,4.83-.28,6.29,1.66,6.23,6.44-.23,19.81-.04,39.62-.15,59.44-.02,3.71.97,5.66,5.08,5.37,3.6-.25,7.24-.26,10.83,0,4.13.31,5.08-1.64,5.06-5.35-.1-24.8-.03-49.61-.1-74.41,0-2.7-.59-5.39-.93-8.31-19.98,0-39.28,0-58.59,0-7.62,0-9.14,1.58-9.32,9.45-.26,11.29-.25,22.61-.95,33.87-.7,11.13-2.04,22-13.46,28.54-3.65,2.09-5.33,7.05-3.48,11.48.93,2.23,3.32,4.98,5.45,5.39,7.42,1.41,14.51-.23,19.06-6.73,3.07-4.39,5.89-9.37,7.18-14.49,2-7.96,2.59-16.28,3.82-25.38M301.87,138.71c-.33-3.38-.44-6.7-5.35-6.66-18.64.15-37.28.2-55.92.13-4.02-.02-5.35,1.32-5.32,5.49.18,25.8.16,51.6-.02,77.4-.03,4.06,1.33,5.06,5.2,5.02,17.65-.18,35.3-.08,52.95-.08q9.7,0,9.61-9.91c0-.17-.01-.33,0-.5.46-4.54-1.76-6.32-6.14-6.28-9.31.09-18.63.23-27.94-.03-13.85-.38-12.97,1.93-12.92-14.01.01-3.49,1.42-5.61,5.33-5.65,9.9-.12,19.8-.59,29.7-.55,5.34.02,5.35-3.93,5.44-7.11.09-3.1.92-7.67-4.32-7.94-8.1-.43-16.22-.62-24.33-.67-11.7-.08-12.04.94-11.8-12.79.06-3.67,1.69-5.71,5.86-5.63,10.15.2,20.31.07,30.47.06,8.28,0,9.43-1.15,9.5-10.3M733.34,167.13c-6.83.08-13.65.29-20.48.22-6.34-.06-7.65-1.5-7.84-7.95-.05-1.66-.11-3.35.14-4.98.58-3.74,2.35-5.65,6.68-5.52,10.65.33,21.32.16,31.98.08,6.35-.05,7.31-1.41,7.18-9.52-.1-6.68-.93-7.43-7.53-7.42-11.33.02-22.65-.04-33.98-.05-8.07-.01-16.15,0-24.17,0v88c21.28,0,42.23.01,63.18-.04.89,0,2.53-.56,2.57-.97.4-4.34,1.02-8.76.47-13.02-.15-1.15-4.01-2.52-6.2-2.58-9.65-.24-19.31.07-28.97-.03-10.79-.11-12.24-1.85-11.34-12.81.07-.82.37-1.62.45-2.43.32-3.23,2.08-4.51,5.32-4.53,9.76-.08,19.51-.56,29.26-.47,4.08.04,5.24-2.15,5.74-5.35,1.08-6.86-1.15-9.7-8.03-10.37-1.16-.11-2.32-.17-4.44-.26M540.72,88.96c2.47.24,4.95.67,7.42.68,15.99.05,31.99.02,47.98-.01,11.24-.02,11.5-.37,10.92-11.41-.19-3.71-1.78-5.32-5.59-5.26-9.33.14-18.66.05-27.99.05-13.76,0-13.67,0-13.49-13.79.06-4.62,1.85-6.5,6.59-6.4,9.16.21,18.33.15,27.48-.14,5.21-.16,6.81-2.51,6.58-8.34-.22-5.58-1.84-7.31-6.99-7.33-8.66-.03-17.33.07-25.99-.03-6.03-.07-7.59-1.77-7.62-7.81,0-1.17,0-2.33,0-3.5.05-6.17,1.47-7.62,7.65-7.64,10.66-.03,21.33-.2,31.99.07,5.29.14,6.05-3.01,6.21-6.97.26-6.56-1.08-8.94-5.56-8.95-18.66-.03-37.31.16-55.97.15-3.79,0-5.09,1.29-5.05,5.27.19,20.82.01,41.65.08,62.47.02,6.12.43,12.25,1.36,18.88M409.06,202.5c-2.41,5.53-4.82,11.05-7.63,17.5,5.38,0,9.82-.22,14.23.06,4.8.31,7.96-1.51,9.71-5.98.72-1.84,1.87-3.53,2.42-5.4,1.56-5.32,5.13-7.26,10.46-7.11,8.15.24,16.31.24,24.47.29,8.49.05,9.21.52,12.38,8.55,3.3,8.37,5.1,9.59,14,9.6,2.16,0,4.34-.13,6.49.03,3.75.27,4.78-.93,3.13-4.53-10.96-23.99-22.36-47.79-32.44-72.14-3.91-9.44-9.21-12.41-18.72-11.41-4.7.49-7.57,1.82-9.54,6.26-9.41,21.26-19.07,42.41-28.96,64.3M771.34,2.92c-4.8-.2-9.65-.93-14.36-.37-2.23.27-5.1,2.59-6.08,4.72-9.5,20.68-18.67,41.5-27.91,62.3-2.77,6.24-5.47,12.51-8.32,19.03,1.93.45,3.2,1,4.48,1.01,17.43.08,16.73.52,21.97-13.12,1.44-3.74,4.15-5.66,8.45-5.54,7.66.21,15.4.72,22.97-.12,8.36-.93,12.71,2.59,15.09,10,.6,1.86,1.55,3.65,2.63,5.28.7,1.06,1.86,2.45,2.91,2.53,6.46.52,12.94.7,19.76,1.01-.28-1.96-.24-2.49-.43-2.91-12.09-26.61-24.17-53.22-36.39-79.77-.73-1.6-2.61-2.67-4.76-4.06M674.84,145.85c.06-1.83.16-3.66.16-5.48.02-7.92-.05-8.15-8.11-8.21-16.47-.13-32.95.07-49.42-.12-4.06-.05-4.55,1.79-4.54,5.16.1,23.13.06,46.27.06,69.4q0,13.43,13.23,13.41c6.91-.01,7.15-.25,7.42-7.26.04-1.16.01-2.33.01-3.49-.01-18.47.04-36.95-.08-55.42-.02-3.61,1.07-4.99,4.87-4.9,9.98.23,19.97.21,29.95-.03,2.06-.05,4.09-1.45,6.45-3.05Z"/>
  <path class="cls-3" d="M1041.45,222c-6.26-2.02-12.34-3.48-17.81-6.18-8.76-4.33-14.55-11.79-18.69-20.56-.77-1.63-1.58-3.25-2.49-4.81-1.9-3.26-4.56-5.33-8.56-4.63-4.6.8-3.5,4.98-3.72,7.66-.52,6.29-.17,12.65-.17,18.98,0,6.45-.88,7.45-7.14,8.11-.5.05-1,.04-1.5.03q-11.37-.27-11.37-11.76c0-23.65.14-47.31-.11-70.96-.05-4.8,1.64-6.34,6.02-5.89.49.05,1,.02,1.5,0,13.4-.36,12.87-.12,13.12,14.91.06,3.8-.84,7.67-.35,11.39.35,2.65,2.27,7.2,3.52,7.21,2.84.02,6.51-1.54,8.35-3.72,3.13-3.72,4.72-8.7,7.64-12.64,12.29-16.56,35.89-22.64,55.42-15.04,18.17,7.08,27.72,25.02,28.2,41.71.74,25.73-19.87,44.07-42.16,45.81-3.18.38-6.21.38-9.7.38M1075,173.76c-.64-10.34-6.62-17.42-15.29-21.56-10.16-4.85-20.19-3.42-28.86,4.43-9.49,8.6-11.49,19.11-6.73,30.52,4.21,10.08,12.48,15.33,23.47,16.23,12.81,1.05,29.45-11.58,27.41-29.63Z"/>
  <path class="cls-3" d="M366.55,0c4.05.68,7.69,1.18,11.24,2.08,7.05,1.81,13.3,5.15,18.23,10.6,6.07,6.71,6.9,14.86,1.97,22.38-4.89,7.46-5.29,9.24,1.24,16.05,10.69,11.12,5.48,28.02-10.16,35.09-9.77,4.42-20.11,5.72-30.59,4.34-7.33-.96-14.65-2.67-21.69-4.92-6.35-2.03-7.57-6.97-4.15-12.69,1.97-3.29,4.47-4.2,8.37-3.26,7.34,1.77,14.79,3.66,22.26,4.04,4.46.23,9.53-1.55,13.44-3.9,2.58-1.55,5.17-5.93,4.82-8.67-.35-2.71-4.03-5.56-6.91-7.2-2.23-1.27-5.47-.94-8.27-1.04-4.16-.14-8.33.17-12.48-.08-7.06-.44-9.13-3.16-7.78-10.06.7-3.57,2.54-5.84,6.76-5.85,5.63,0,11.29-.27,16.86-.97,4.1-.51,7.59-2.57,8.37-7.19.83-4.96-2.62-7.2-6.33-8.92-7.5-3.49-15.2-2.1-22.84-.46-1.44.31-2.8.98-4.24,1.31-6.01,1.38-9.26-.7-10.92-6.92-1.31-4.91.28-8,5.97-9.52,5.87-1.57,11.95-2.34,18.11-3.85,2.87-.39,5.57-.39,8.72-.39Z"/>
  <path class="cls-5" d="M0,9V0c18.02,0,36.04,0,54.53.32.75.82,1.04,1.31,1.45,2.13,3.83,5.96,7.72,11.49,11.16,17.29,1.24,2.09,2.09,4.89,1.9,7.28-.89,11.36-2.2,22.68-3.62,34.32-.6,4.78-.92,9.27-1.31,14.16.39,2.38.26,4.85,1.42,6.24,2.83,3.37,6.27,6.24,9.56,9.63,4.97,5.1,9.85,9.88,14.89,14.96,7.27,7.5,14.37,14.71,21.48,21.91-.29.33-.58.66-.87.98-6.86-4.1-13.71-8.2-20.68-12.63-5.02-3.35-9.93-6.37-15.18-9.53-9.16-5.61-18.09-10.94-26.75-16.7-1.89-1.26-3.57-3.85-4.02-6.1-2.58-12.96-4.65-26.02-7.15-39-.89-4.6-1.21-10.2-4.01-13.39C23.91,21.8,13.99,12.64,3.9,2.54c-1.12,2.37-2.06,4.37-3.22,6.4-.22.03-.68.06-.68.06Z"/>
  <path class="cls-6" d="M0,9.47c0-.47.45-.5.73-.06.27,4.1.26,7.76.26,11.42-.03,62.75-.06,125.51-.09,188.26,0,0-.45-.07-.67-.08-.23-66.37-.23-132.72-.23-199.55Z"/>
  <path class="cls-6" d="M55.85,2.13c-.29-.5-.57-.99-.85-1.81,33.36-.32,66.71-.32,100.53-.32.47,0,.41.47.01.74-31.99.27-63.58.24-95.17.29-1.51,0-3.02.71-4.53,1.09Z"/>
  <path class="cls-3" d="M55.98,2.45c1.38-.7,2.89-1.41,4.4-1.42,31.59-.05,63.18-.02,95.24-.06,6.7,1.97,8.96,5.24,8.97,12.74.04,27.32.01,54.64.02,81.96.01,34.65.03,69.29.05,103.94,0,2.33.14,4.68-.09,6.99-.67,6.78-4.68,10.39-11.48,10.39-47.15.01-94.3-.02-141.46.04-5.33,0-8.8-2.29-10.66-7.58-.03-63.11,0-125.86.03-188.61,0-3.66,0-7.32-.04-11.46.89-2.47,1.83-4.47,2.95-6.84,10.09,10.1,20.02,19.26,28.89,29.35,2.8,3.19,3.12,8.78,4.01,13.39,2.5,12.98,4.57,26.04,7.15,39,.45,2.24,2.13,4.84,4.02,6.1,8.65,5.75,17.58,11.08,26.76,17.15.36,10.9.38,21.22.39,31.54,0,8.88.01,8.63,8.9,8.92,4.76.16,6.06-1.67,5.95-6.1-.21-8.32,0-16.64.05-24.96,6.86,4.1,13.71,8.2,20.57,12.3.29-.33.58-.66.87-.98-7.1-7.2-14.21-14.41-21.45-22.38-.14-10.66-.14-20.55-.14-30.73,6.72,0,12.53.01,18.33,0,9.93-.03,8.53.85,8.91-8.82.18-4.57-1.54-5.71-5.78-5.53-6.93.29-13.89.08-21.45.08,0-6.29.01-12.06,0-17.83-.02-10.4.92-9.15-9.39-9.43-4.15-.11-5.6,1.26-5.44,5.44.28,7.09.08,14.2.08,21.59-3.54.16-6.49.29-9.45.42,1.16-11.34,2.47-22.66,3.36-34.02.19-2.38-.66-5.18-1.9-7.28-3.43-5.8-7.32-11.33-11.16-17.29Z"/>
  <path class="cls-3" d="M419.13,31c0-7.83.19-15.17-.07-22.49-.16-4.59,2.04-6.01,6.16-6.39,7.19-.66,12.43,1.09,16.29,8.11,7.31,13.29,15.56,26.07,23.45,39.04,1.02,1.68,2.26,3.23,4.15,5.92,3.67-6.03,6.96-11.39,10.2-16.78,6.28-10.47,12.47-21,18.82-31.43,2.83-4.65,14.17-6.9,18.36-3.66.85.65,1.31,2.29,1.32,3.47.11,25.99.13,51.97.19,77.96,0,2.79-.92,4.47-4.05,4.31-.96-.05-1.94.42-2.93.52-10.21,1.02-12.02-.6-12.02-10.71,0-10.33.04-20.66-.04-30.99-.01-2.01-.49-4.01-.75-6.02-.51-.14-1.03-.28-1.54-.41-3.25,5.2-6.55,10.37-9.74,15.61-3.43,5.64-6.55,11.47-10.18,16.98-5.21,7.9-10.99,7.8-16.16-.13-6.14-9.42-12.17-18.91-18.26-28.36-.65-1.01-1.42-1.95-2.87-3.91-.23,2.48-.44,3.7-.44,4.93-.02,12.16-.09,24.32.03,36.48.04,3.81-1.09,6.12-5.3,6.01-.63-.02-1.27.42-1.92.5-10.95,1.36-12.7-.19-12.7-11.08,0-15.66,0-31.32,0-47.48Z"/>
  <path class="cls-3" d="M264.17,46.15c9.4-12.83,18.81-25.22,27.76-37.93,3.16-4.48,6.83-6.31,12.13-6.13,14.9.5,12.75-.81,12.8,12.52.07,22.49-.08,44.99.1,67.48.03,4.56-.89,7.44-6.08,7.22-3.79-.16-7.76.4-11.29-.61-1.6-.46-3.25-3.94-3.3-6.08-.3-13.82-.15-27.65-.16-41.48,0-1.59,0-3.18,0-4.76-.33-.12-.66-.23-.99-.35-5.08,6.63-10.21,13.22-15.22,19.89-7.15,9.53-14.3,19.05-21.26,28.71-4.41,6.11-10.78,4.59-16.75,4.89-5.54.28-6.73-2.61-6.67-7.69.24-24.15.12-48.3.16-72.46.01-6.3.5-6.77,6.61-7.17,13.57-.89,14-.49,14,12.9,0,13.46,0,26.93,0,41.94,3.2-4.22,5.6-7.39,8.16-10.88Z"/>
  <path class="cls-3" d="M320.37,133.33c18.71-1.25,37.04-3.09,55.27,1.57,15.55,3.98,21.88,23.41,11.36,34.55-3.58,3.8-2.83,5.78,2.62,10.57,7.37,6.47,8.97,19.76,3.11,27.48-5.96,7.84-14.1,12.15-23.84,12.4-15.13.38-30.28.06-45.43.14-2.8.02-4.38-.58-4.37-3.8.07-26.63.03-53.25.08-79.88,0-.93.55-1.85,1.19-3.03M364.56,204.39c.65-.13,1.32-.22,1.95-.4,6.55-1.89,9.16-5.08,8.79-10.75-.37-5.75-3.85-9.21-10.46-9.87-4.12-.41-8.3-.46-12.44-.34-13.51.39-13.51.44-13.4,14,0,1.16.11,2.32.09,3.49-.05,2.9,1.29,4.24,4.23,4.2,6.8-.09,13.6-.08,21.23-.32M370.1,153.82c-1.77-1.66-3.46-4.64-5.32-4.76-8.48-.52-17-.23-25.78-.23,0,5.15.1,9.97-.03,14.78-.11,3.86,1.78,5.59,5.42,5.43,5.97-.26,12-.26,17.88-1.16,7.59-1.16,9.96-5.49,7.83-14.06Z"/>
  <path class="cls-3" d="M867.99,209.93c0-24.3.12-48.11-.1-71.92-.04-4.55,1.79-5.9,5.81-5.89,16.67.04,14.14.29,14.79,14.29.45,9.77-.35,19.59-.44,29.39-.03,3.28.38,6.57.69,11.44,5.67-7.42,10.58-13.69,15.32-20.08,7.59-10.23,15.03-20.55,22.6-30.79,2.93-3.97,16.64-6.13,20.32-3.17.7.57.99,1.98,1.01,3.01.27,11.46.54,22.93.63,34.4.1,12.43.45,24.89-.12,37.3-.67,14.79,1.04,11.69-12.02,12.13-6.32.21-8.18-.55-8.09-9.03.16-14.53.04-29.07.04-43.6-.42-.23-.84-.46-1.25-.69-2.17,2.51-4.51,4.89-6.47,7.55-9.25,12.52-18.68,24.92-27.47,37.75-5.81,8.48-13.91,8.57-22.5,7.73-1.01-.1-2.32-2.05-2.63-3.35-.45-1.89-.12-3.97-.12-6.46Z"/>
  <path class="cls-3" d="M683,19.98c0-4.32.09-8.16-.03-11.99-.1-3.23,1.44-4.9,4.48-5.42.82-.14,1.63-.34,2.46-.41,12.58-1.05,13.1-.58,13.1,11.87,0,22.99-.1,45.98.09,68.96.04,4.35-.77,6.85-5.69,6.02-.32-.05-.67-.04-1,0-15.4,2.01-13.32-2.15-13.86-14.72-.21-4.96.45-9.95.38-14.93-.06-3.83-1.83-5.97-6.23-5.84-8.82.26-17.66.2-26.48.03-4.76-.1-6.46,1.85-6.3,6.59.27,7.65,0,15.32.01,22.98,0,3.72-1.24,6.08-5.51,5.92-3.76-.15-7.56-.25-11.3.05-3.98.32-4.19-1.82-4.17-4.88.08-20.82.04-41.64.04-62.47,0-4.94.21-9.89-.07-14.82-.19-3.36,1.31-4.22,4.26-4.58,15.17-1.81,16.82-.41,16.82,14.82,0,4.33.1,8.66-.03,12.99-.13,4.28,1.83,5.94,6.04,5.87,8.99-.15,17.99-.2,26.98.03,3.88.1,5.54-1.72,5.8-5.12.26-3.48.15-6.98.2-10.97Z"/>
  <path class="cls-3" d="M512,176c0-13.44.11-26.38-.08-39.32-.05-3.14,1.35-4.09,3.98-4.35.33-.03.66-.08.99-.12,13.93-1.37,15.11-.32,15.11,13.42,0,4.83.03,9.66,0,14.5-.03,3.83.99,6.4,5.61,6.32,9.44-.17,18.89-.08,28.34-.05,3.91.01,5.16-2.04,5.09-5.7-.13-6.83-.11-13.66-.01-20.49.09-5.77,1.61-7.37,7.21-8.02.66-.08,1.33-.04,2-.05,11.5-.23,11.77.03,11.77,11.25,0,23.66-.11,47.32.1,70.98.04,4.54-1.61,5.73-5.8,5.69-15.57-.16-15.51,1.46-15.32-15.01.06-5-.07-10,.04-15,.09-4.11-1.63-6.12-5.87-6.08-8.83.09-17.66-.03-26.49.05-5.37.05-6.6,1.34-6.64,6.88-.06,7.66-.16,15.33.04,22.99.12,4.42-2.23,5.86-6.04,6.1-.5.03-1,0-1.5,0-12.23.12-12.32.12-12.49-12.18-.14-10.44-.03-20.88-.03-31.82Z"/>
  <path class="cls-3" d="M795.58,174.59c-1.21,8.63-1.8,16.95-3.8,24.91-1.28,5.13-4.11,10.1-7.18,14.49-4.55,6.5-11.64,8.14-19.06,6.73-2.13-.4-4.52-3.15-5.45-5.39-1.85-4.43-.17-9.39,3.48-11.48,11.42-6.53,12.77-17.41,13.46-28.54.7-11.27.69-22.58.95-33.87.18-7.87,1.7-9.45,9.32-9.45,19.3,0,38.61,0,58.59,0,.34,2.91.92,5.61.93,8.31.07,24.8,0,49.61.1,74.41.02,3.71-.93,5.66-5.06,5.35-3.59-.27-7.24-.25-10.83,0-4.11.28-5.1-1.66-5.08-5.37.11-19.81-.08-39.63.15-59.44.06-4.78-1.4-6.72-6.23-6.44-4.98.29-9.99.03-14.98.17-6.54.18-8.72,2.52-8.88,9.18-.13,5.32-.27,10.64-.43,16.43Z"/>
  <path class="cls-3" d="M301.88,139.14c-.08,8.71-1.22,9.86-9.5,9.87-10.16.01-20.32.14-30.47-.06-4.17-.08-5.8,1.96-5.86,5.63-.24,13.72.1,12.71,11.8,12.79,8.11.05,16.23.24,24.33.67,5.24.28,4.41,4.84,4.32,7.94-.09,3.18-.1,7.13-5.44,7.11-9.9-.04-19.8.43-29.7.55-3.91.05-5.32,2.17-5.33,5.65-.05,15.94-.93,13.63,12.92,14.01,9.31.25,18.63.12,27.94.03,4.37-.04,6.6,1.73,6.14,6.28-.02.16,0,.33,0,.5q.09,9.91-9.61,9.91c-17.65,0-35.3-.1-52.95.08-3.87.04-5.22-.96-5.2-5.02.18-25.8.2-51.6.02-77.4-.03-4.18,1.3-5.51,5.32-5.49,18.64.07,37.28.02,55.92-.13,4.91-.04,5.02,3.28,5.35,7.09Z"/>
  <path class="cls-3" d="M733.81,167.14c1.64.09,2.8.14,3.96.25,6.87.66,9.11,3.5,8.03,10.37-.51,3.2-1.66,5.39-5.74,5.35-9.75-.1-19.51.38-29.26.47-3.24.03-4.99,1.3-5.32,4.53-.08.82-.38,1.62-.45,2.43-.9,10.97.55,12.7,11.34,12.81,9.66.1,19.32-.21,28.97.03,2.19.05,6.06,1.43,6.2,2.58.55,4.26-.06,8.68-.47,13.02-.04.41-1.67.97-2.57.97-20.95.05-41.91.04-63.18.04v-88c8.02,0,16.1,0,24.17,0,11.33.01,22.65.08,33.98.05,6.61-.01,7.43.74,7.53,7.42.13,8.11-.83,9.47-7.18,9.52-10.66.08-21.33.24-31.98-.08-4.34-.13-6.1,1.78-6.68,5.52-.25,1.63-.19,3.32-.14,4.98.19,6.45,1.49,7.88,7.84,7.95,6.82.07,13.65-.13,20.95-.21Z"/>
  <path class="cls-3" d="M540.37,88.7c-.58-6.38-.99-12.5-1.01-18.62-.07-20.82.11-41.65-.08-62.47-.04-3.98,1.26-5.28,5.05-5.27,18.66,0,37.31-.19,55.97-.15,4.48,0,5.82,2.38,5.56,8.95-.16,3.96-.92,7.1-6.21,6.97-10.66-.27-21.32-.1-31.99-.07-6.18.02-7.6,1.47-7.65,7.64-.01,1.17,0,2.33,0,3.5.04,6.03,1.6,7.74,7.62,7.81,8.66.1,17.33,0,25.99.03,5.15.02,6.77,1.74,6.99,7.33.23,5.83-1.37,8.18-6.58,8.34-9.15.28-18.33.34-27.48.14-4.74-.11-6.53,1.78-6.59,6.4-.18,13.79-.27,13.79,13.49,13.79,9.33,0,18.66.1,27.99-.05,3.81-.06,5.4,1.55,5.59,5.26.58,11.05.32,11.39-10.92,11.41-15.99.03-31.99.06-47.98.01-2.48,0-4.95-.44-7.78-.93Z"/>
  <path class="cls-3" d="M409.21,202.16c9.73-21.54,19.39-42.69,28.8-63.95,1.96-4.44,4.84-5.76,9.54-6.26,9.51-1,14.81,1.97,18.72,11.41,10.08,24.35,21.49,48.15,32.44,72.14,1.65,3.6.61,4.8-3.13,4.53-2.15-.16-4.33-.03-6.49-.03-8.9,0-10.69-1.23-14-9.6-3.17-8.03-3.89-8.5-12.38-8.55-8.16-.05-16.32-.05-24.47-.29-5.33-.15-8.9,1.79-10.46,7.11-.55,1.88-1.71,3.57-2.42,5.4-1.75,4.47-4.91,6.28-9.71,5.98-4.41-.28-8.85-.06-14.23-.06,2.81-6.45,5.22-11.98,7.79-17.85M452.84,157.77c-.42-.89-.83-1.79-1.57-3.37-4.62,10.44-9.04,20.41-13.63,30.79h26.7c-3.87-9.17-7.57-17.93-11.5-27.41Z"/>
  <path class="cls-3" d="M771.75,2.96c1.75,1.35,3.62,2.43,4.35,4.02,12.22,26.55,24.3,53.16,36.39,79.77.19.42.15.95.43,2.91-6.82-.31-13.3-.5-19.76-1.01-1.05-.08-2.21-1.47-2.91-2.53-1.08-1.63-2.03-3.43-2.63-5.28-2.38-7.41-6.73-10.93-15.09-10-7.57.84-15.31.33-22.97.12-4.3-.12-7.01,1.8-8.45,5.54-5.24,13.64-4.54,13.2-21.97,13.12-1.28,0-2.55-.56-4.48-1.01,2.85-6.53,5.55-12.8,8.32-19.03,9.24-20.79,18.41-41.62,27.91-62.3.98-2.13,3.85-4.45,6.08-4.72,4.7-.57,9.56.17,14.76.4M761.04,28.55c-3.72,8.78-7.43,17.56-11.33,26.76h27.73c-4.7-10.98-9.09-21.25-13.76-32.17-1.05,2.07-1.71,3.38-2.64,5.41Z"/>
  <path class="cls-3" d="M674.68,146.26c-2.2,1.19-4.23,2.6-6.29,2.64-9.98.24-19.97.26-29.95.03-3.8-.09-4.9,1.3-4.87,4.9.13,18.47.07,36.95.08,55.42,0,1.16.03,2.33-.01,3.49-.26,7.01-.51,7.25-7.42,7.26q-13.23.02-13.23-13.41c0-23.14.05-46.27-.06-69.4-.02-3.37.48-5.21,4.54-5.16,16.47.19,32.95,0,49.42.12,8.06.06,8.13.29,8.11,8.21,0,1.83-.1,3.66-.32,5.89Z"/>
  <path class="cls-3" d="M1075,174.22c2.04,17.59-14.59,30.22-27.41,29.17-10.99-.9-19.26-6.15-23.47-16.23-4.76-11.41-2.76-21.93,6.73-30.52,8.67-7.85,18.7-9.28,28.86-4.43,8.67,4.13,14.65,11.21,15.29,22.01Z"/>
  <path class="cls-4" d="M65.41,61.34c3.22-.43,6.17-.56,9.71-.71,0-7.39.2-14.5-.08-21.59-.17-4.18,1.29-5.55,5.44-5.44,10.31.28,9.36-.97,9.39,9.43.01,5.77,0,11.54,0,17.83,7.56,0,14.51.21,21.45-.08,4.24-.18,5.96.96,5.78,5.53-.38,9.67,1.01,8.79-8.91,8.82-5.81.02-11.62,0-18.33,0,0,10.18,0,20.07-.02,30.43-4.9-4.31-9.78-9.1-14.71-14.67-.06-5.65-.06-10.5-.06-15.8h-10.89c.33-4.49.65-8.98,1.25-13.76Z"/>
  <path class="cls-2" d="M89.89,116.6c.07,8.65-.14,16.97.06,25.29.11,4.43-1.19,6.26-5.95,6.1-8.88-.29-8.89-.05-8.9-8.92,0-10.32-.03-20.64-.05-31.41,4.9,2.57,9.81,5.6,14.83,8.95Z"/>
  <path class="cls-1" d="M64.1,75.5c3.48-.4,6.9-.4,10.95-.4,0,5.3,0,10.15-.04,15.48-3.23-2.6-6.67-5.47-9.5-8.84-1.16-1.38-1.03-3.86-1.42-6.24Z"/>
  <path class="cls-8" d="M364.14,204.5c-7.22.14-14.02.12-20.81.21-2.95.04-4.29-1.3-4.23-4.2.02-1.16-.08-2.32-.09-3.49-.11-13.55-.11-13.61,13.4-14,4.14-.12,8.32-.07,12.44.34,6.62.65,10.1,4.12,10.46,9.87.36,5.67-2.24,8.87-8.79,10.75-.64.18-1.3.27-2.37.51Z"/>
  <path class="cls-7" d="M370.26,154.19c1.97,8.21-.4,12.54-7.99,13.7-5.88.9-11.91.9-17.88,1.16-3.64.16-5.53-1.56-5.42-5.43.13-4.81.03-9.63.03-14.78,8.77,0,17.3-.29,25.78.23,1.86.11,3.55,3.1,5.49,5.12Z"/>
  <path class="cls-7" d="M452.95,158.13c3.81,9.12,7.51,17.89,11.38,27.05h-26.7c4.6-10.38,9.01-20.34,13.63-30.79.74,1.58,1.15,2.48,1.68,3.73Z"/>
</svg>